<?xml version="1.0" encoding="UTF-8" standalone="no"?>
<svg
   version="1.1"
   viewBox="0 0 450 200"
   id="svg177"
   sodipodi:docname="340_transparent.svg"
   width="180"
   height="80"
   inkscape:version="1.2 (56b05e47e7, 2022-06-09, custom)"
   xmlns:inkscape="http://www.inkscape.org/namespaces/inkscape"
   xmlns:sodipodi="http://sodipodi.sourceforge.net/DTD/sodipodi-0.dtd"
   xmlns="http://www.w3.org/2000/svg"
   xmlns:svg="http://www.w3.org/2000/svg"
   xmlns:rdf="http://www.w3.org/1999/02/22-rdf-syntax-ns#"
   xmlns:cc="http://creativecommons.org/ns#"
   xmlns:dc="http://purl.org/dc/elements/1.1/">
  <defs
     id="defs181" />
  <sodipodi:namedview
     id="namedview179"
     pagecolor="#505050"
     bordercolor="#eeeeee"
     borderopacity="1"
     inkscape:showpageshadow="0"
     inkscape:pageopacity="0"
     inkscape:pagecheckerboard="0"
     inkscape:deskcolor="#505050"
     showgrid="false"
     inkscape:zoom="2.885943"
     inkscape:cx="173.6001"
     inkscape:cy="72.939764"
     inkscape:window-width="1848"
     inkscape:window-height="1016"
     inkscape:window-x="72"
     inkscape:window-y="27"
     inkscape:window-maximized="1"
     inkscape:current-layer="svg177" />
  <title
     id="title157">Logos / betway</title>
  <desc
     id="desc159">Created with Sketch.</desc>
  <g
     fill="none"
     fill-rule="evenodd"
     id="g175"
     transform="translate(16.155,41.145981)">
    <g
       fill="#ffffff"
       fill-rule="nonzero"
       id="g173">
      <path
         d="m 23.73,24.54 c 1.8882,-0.5591 3.8128,-0.98679 5.76,-1.28 2.3175,-0.34034 4.6578,-0.50081 7,-0.48 4.4287,-0.07337 8.8213,0.80653 12.88,2.58 3.6579,1.6101 6.9205,3.999 9.56,7 2.6446,3.1243 4.6462,6.7402 5.89,10.64 1.3619,4.1975 2.0373,8.5873 2,13 0.11872,5.4631 -0.82545,10.897 -2.78,16 -1.6859,4.2875 -4.358,8.1177 -7.8,11.18 -3.4502,2.9979 -7.4904,5.2394 -11.86,6.58 -4.8593,1.4873 -9.9184,2.2192 -15,2.17 C 23.9599,91.984548 18.549,91.4616 13.24,90.37 8.7379,89.41003 4.3126,88.1199 0,86.51 V 0 h 23.73 z m 0,49.09 c 2.03,0.57098 4.1315,0.84713 6.24,0.82 3.7715,0.1232 7.4013,-1.4424 9.9,-4.27 2.5333,-2.8533 3.7967,-7.2167 3.79,-13.09 0,-5.7 -1.2433,-9.9033 -3.73,-12.61 -2.3907,-2.6732 -5.8349,-4.1613 -9.42,-4.07 -1.1853,-0.0096 -2.3683,0.10434 -3.53,0.34 -1.1,0.22787 -2.1853,0.52174 -3.25,0.88 z"
         id="path161" />
      <path
         d="m 92.75,61.83 c 0.18,4 1.47,7.0967 3.87,9.29 2.4984,2.2617 5.7823,3.4568 9.15,3.33 2.6463,0.06959 5.2713,-0.48901 7.66,-1.63 2.2973,-1.2319 4.308,-2.9359 5.9,-5 l 14.51,11.39 c -1.4779,1.8453 -3.1547,3.5221 -5,5 -4.2626,3.4006 -9.2919,5.7076 -14.65,6.72 -3.4643,0.65518 -6.9844,0.97001 -10.51,0.94 -4.4981,0.03527 -8.9692,-0.69863 -13.22,-2.17 -8.2549,-2.7882 -14.871,-9.0572 -18.1,-17.15 -1.8984,-4.7682 -2.82,-9.869 -2.71,-15 -0.08888,-5.0232 0.78695,-10.017 2.58,-14.71 1.5573,-4.0828 3.9403,-7.8003 7,-10.92 3.0429,-3.0424 6.7206,-5.3747 10.77,-6.83 4.2777,-1.5689 8.8038,-2.3515 13.36,-2.31 9.8533,0 17.693,3.1867 23.52,9.56 5.827,6.3733 8.7867,16.203 8.88,29.49 z M 113.5,49.22 c -0.0904,-3.0576 -1.2149,-5.9942 -3.19,-8.33 -1.6757,-1.9599 -4.1314,-3.0798 -6.71,-3.06 -2.7135,0.0086 -5.2979,1.1593 -7.12,3.17 -2.1113,2.2633 -3.382,5.1825 -3.6,8.27 z"
         id="path163" />
      <path
         d="M 135.19,40.82 V 24.28 h 9.36 V 7.59 h 23.73 v 16.69 h 10.06 l 5.86,16.54 h -15.92 v 26.57 c -0.0703,1.7933 0.1803,3.5848 0.74,5.29 0.5,1.27 1.61,1.9 3.33,1.9 1.6119,-0.0025 3.202,-0.37178 4.65,-1.08 1.4125,-0.67578 2.7527,-1.4933 4,-2.44 l 6.1,14.37 c -2.9667,2.0719 -6.2351,3.674 -9.69,4.75 -3.9427,1.1448 -8.035,1.6909 -12.14,1.62 -3.3447,0.08903 -6.6772,-0.43982 -9.83,-1.56 -2.4768,-0.91298 -4.6892,-2.4246 -6.44,-4.4 -1.6797,-2.0036 -2.865,-4.374 -3.46,-6.92 -0.6983,-2.9753 -1.0341,-6.0241 -1,-9.08 v -29 z"
         id="path165" />
      <polygon
         points="205.49,90.45 176.17,7.56 199.11,7.56 216.11,59.4 226.28,24.28 241.7,24.28 251.87,59.4 261.63,24.28 285.9,24.28 262.44,90.45 244.27,90.45 233.83,55.73 223.53,90.45 "
         id="polygon167" />
      <path
         d="m 323.12,90.45 -1.9,-5.16 c -2.1382,1.921 -4.6224,3.4176 -7.32,4.41 -3.4223,1.2814 -7.0564,1.9024 -10.71,1.83 -2.9051,0.02716 -5.7946,-0.42907 -8.55,-1.35 -2.5297,-0.85117 -4.8578,-2.2126 -6.84,-4 -1.9438,-1.7558 -3.4944,-3.9028 -4.55,-6.3 -1.1238,-2.6587 -1.6758,-5.5241 -1.62,-8.41 -0.19524,-5.7331 2.3433,-11.218 6.84,-14.78 2.2335,-1.776 4.7301,-3.193 7.4,-4.2 2.8813,-1.1111 5.8811,-1.8862 8.94,-2.31 2.9,-0.45 5.58,-0.79 8.07,-1 2.49,-0.21 4.77,-0.39 6.85,-0.48 v -1.64 c 0,-2.72 -0.86,-4.7 -2.58,-6 -1.7709,-1.2833 -3.9136,-1.9507 -6.1,-1.9 -2.5394,-0.01439 -5.0546,0.49274 -7.39,1.49 -2.3885,1.0719 -4.6273,2.4502 -6.66,4.1 L 286.37,33 c 3.599,-3.1508 7.7031,-5.6727 12.14,-7.46 5.1349,-1.9194 10.59,-2.8393 16.07,-2.71 8.6667,0 15.58,2.1033 20.74,6.31 5.16,4.2067 7.7367,10.737 7.73,19.59 v 41.72 z m -3.39,-30 c -1.36,0.09 -2.71,0.2 -4.07,0.34 -1.36,0.14 -2.76,0.34 -4.2,0.61 -2.8,0.45 -4.8,1.42 -6,2.91 -1.1531,1.4097 -1.7758,3.1788 -1.76,5 -0.0497,1.7774 0.68107,3.4875 2,4.68 1.524,1.2978 3.4921,1.9539 5.49,1.83 1.5933,0.02075 3.1767,-0.25389 4.67,-0.81 1.3866,-0.53575 2.6897,-1.2664 3.87,-2.17 z"
         id="path169" />
      <path
         d="m 349.12,97.77 c 1.4244,0.78499 2.9256,1.4217 4.48,1.9 1.5297,0.50905 3.128,0.78218 4.74,0.81 1.4454,0.0504 2.877,-0.29538 4.14,-1 1.205,-0.8345 2.1261,-2.0173 2.64,-3.39 l 3.8,-8.54 -28.07,-63.27 h 25.76 L 380,62.92 393.29,24.28 h 24.4 l -33.08,78.37 c -2.3467,5.5067 -5.5333,9.3933 -9.56,11.66 -4.3497,2.3391 -9.2327,3.5073 -14.17,3.39 -3.1955,0.0282 -6.3825,-0.33452 -9.49,-1.08 -2.8341,-0.70839 -5.6012,-1.662 -8.27,-2.85 z"
         id="path171" />
    </g>
  </g>
  <metadata
     id="metadata183">
    <rdf:RDF>
      <cc:Work
         rdf:about="">
        <dc:title>Logos / betway</dc:title>
      </cc:Work>
    </rdf:RDF>
  </metadata>
</svg>
