<svg xmlns="http://www.w3.org/2000/svg" width="36" height="36" viewBox="0 0 36 36"><path d="M22.8 6.8c-.2-1.5-1.5-2.7-3-2.8h-11c-1.7.1-3 1.5-3.1 3.2v21.6c0 1.7 1.4 3.1 3.1 3.2h11c1.7-.1 3-1.5 3.1-3.2V14.4h7.4V6.8h-7.5zM7 7.2c0-1 .8-1.8 1.8-1.9h11c.9.1 1.6.7 1.8 1.5H10.5c-.4 0-.6.3-.6.7 0 .3.3.6.6.6h3.9v1.1H7v-2zm9.6 3.6v2h-.8V8.5h1.1l1.9 3.2V8.5h.8v4.3h-1.2l-1.9-3.2c0 .5.1.9.1 1.2zm5 18c0 1-.8 1.8-1.8 1.9h-11c-1-.1-1.8-.9-1.8-1.9v-1.9h14.7v1.9zm0-3.2H7V10.4h7.4v4.1h7.3v11.1zm1.5-16.4h-1.6v.9H23v.7h-1.5V12h1.6v.8h-2.5V8.5h2.5v.7zm5.1 3.6h-1l-.6-2.2c0-.1-.1-.2-.1-.5s-.1-.4-.1-.5c0 .1 0 .3-.1.5 0 .2-.1.4-.1.5l-.6 2.2h-1l-1.1-4.3h.9l.5 2.3c.1.4.2.8.2 1.1 0-.1 0-.3.1-.5 0-.2.1-.4.1-.5l.6-2.4h.9l.6 2.4c0 .1.1.3.1.5s.1.4.1.6c0-.2.1-.3.1-.6s.1-.4.1-.6l.5-2.3h.9l-1 4.3z" fill="#e74b18"/></svg>