<svg xmlns="http://www.w3.org/2000/svg" width="36" height="36" viewBox="0 0 36 36"><path d="M29.079,29.658H28.024V23.7a.625.625,0,0,0-.625-.625H23.847V20.146a.626.626,0,0,0-.625-.625H21.758v-9.08a.625.625,0,0,0-.625-.625H19.307v-4.1a.625.625,0,1,0-1.25,0v4.1H16.229a.625.625,0,0,0-.625.625v4.185H12.915a.625.625,0,0,0-.625.625v4.484H9.418a.625.625,0,0,0-.625.625v9.3H6.921a.625.625,0,1,0,0,1.25H29.079a.625.625,0,0,0,0-1.25Zm-2.3,0H22.439V24.324h4.335ZM22.6,23.074h-.783a.626.626,0,0,0-.625.625v5.959h-.884V20.771H22.6ZM16.854,11.066h3.654v8.455H19.68a.625.625,0,0,0-.625.625v9.512H17.671V15.251a.625.625,0,0,0-.625-.625h-.192Zm-.433,4.81V29.658H13.54V15.876Zm-6.378,5.109H12.29v8.673H10.043Z" fill="#e74b18"/></svg>