<svg xmlns="http://www.w3.org/2000/svg" width="36" height="36" viewBox="0 0 36 36"><path d="M23.455,9.2a4.718,4.718,0,0,1,2.624.8l.159.106.328.219h.054a6.622,6.622,0,0,1,.993,1A5.631,5.631,0,0,1,28.7,14.594a5.139,5.139,0,0,1-1.591,3.8L18.048,26.37,8.933,18.433A5.2,5.2,0,0,1,7.3,14.559,5.34,5.34,0,0,1,12.56,9.2h.086a5.239,5.239,0,0,1,3.814,1.676l.558.562.917.922.922-.917.609-.607A5.2,5.2,0,0,1,23.254,9.2l.2,0m-.006-1.3-.206,0A6.5,6.5,0,0,0,18.518,9.95l-.578.574-.558-.561A6.513,6.513,0,0,0,12.646,7.9H12.56A6.646,6.646,0,0,0,6,14.565a6.492,6.492,0,0,0,2.043,4.817L18.052,28.1l9.916-8.729A6.46,6.46,0,0,0,30,14.576a6.913,6.913,0,0,0-1.336-4.014,8.131,8.131,0,0,0-1.6-1.537h-.1l-.16-.107A6.006,6.006,0,0,0,23.449,7.9Z" fill="#e74b18"/></svg>