<svg xmlns="http://www.w3.org/2000/svg" width="36" height="36" viewBox="0 0 36 36"><path d="M30.154,10.515A2.181,2.181,0,0,0,28.061,8.5H7.853a.7.7,0,0,0-.1.008A2.165,2.165,0,0,0,5.841,10.6V25.431a.559.559,0,0,0,0,.057A2.074,2.074,0,0,0,7.853,27.5H28.032l.054,0a2.152,2.152,0,0,0,2.073-2.125V10.6A.755.755,0,0,0,30.154,10.515ZM7.917,9.88H28.061c.543,0,.686.587.718.77V12.5H7.221V10.6C7.221,10.076,7.739,9.919,7.917,9.88ZM28,26.121H7.853c-.506,0-.613-.568-.632-.726v-8.89H28.779v8.868C28.779,25.969,28.209,26.1,28,26.121Z" fill="#e74b18"/><path d="M13.487,22.1H10.21a.69.69,0,0,0,0,1.379h3.277a.69.69,0,1,0,0-1.379Z" fill="#e74b18"/><path d="M21.536,22.1H15.787a.69.69,0,1,0,0,1.379h5.749a.69.69,0,0,0,0-1.379Z" fill="#e74b18"/></svg>