<svg xmlns="http://www.w3.org/2000/svg" width="36" height="36" viewBox="0 0 36 36"><g fill="#e74b18"><path d="M12.677 23.18h-1.341c-.121 0-.218.097-.218.218s.097.218.218.218h1.341c.121 0 .218-.097.218-.218s-.097-.218-.218-.218zM12.58 23.711h-1.16c-.121 0-.218.097-.218.218s.097.218.218.218c.085.23.302.399.556.399s.471-.169.556-.399h.036c.121 0 .218-.097.218-.218s-.097-.218-.218-.218h.012zM11.976 19.035c-1.486 0-1.801 1.426-1.801 1.704 0 .314.06.906.483 1.353.326.338.35.725.35.737 0 .109.097.205.218.205h1.511s.121-.036.157-.073a.217.217 0 00.048-.169s-.024-.302.471-.798c.423-.423.423-1.039.423-1.245 0-.435-.459-1.704-1.849-1.704l-.012-.012zm.036.991c-.254 0-.459.073-.592.218-.254.254-.242.665-.242.677 0 .121-.085.218-.205.218-.109 0-.205-.097-.218-.205 0-.024 0-.592.363-.979.218-.23.532-.35.906-.35.121 0 .218.097.218.218s-.097.218-.218.218l-.012-.012zM31.142 17.862l-1.402-1.293v-3.154a.624.624 0 00-.628-.628h-2.199a.615.615 0 00-.447.193.648.648 0 00-.181.459v.085l-1.764-1.571a.629.629 0 00-.846 0l-3.867 3.601s0-.012-.012-.012l-1.825-1.716V10.66a.624.624 0 00-.628-.628h-2.199a.615.615 0 00-.447.193.648.648 0 00-.181.459v.085l-1.764-1.583a.629.629 0 00-.846 0l-7.033 6.332a.642.642 0 00-.048.894.65.65 0 00.894.048l6.61-5.958 2.429 2.175a.63.63 0 00.689.097.623.623 0 00.363-.592l-.024-.894h.918v2.804c0 .169.073.338.193.459l1.97 1.861-.81.761a.642.642 0 00-.036.894c.242.254.64.266.894.036l5.184-4.822 2.429 2.163c.193.169.459.205.689.097s.375-.338.363-.592l-.024-.906h.918v2.804c0 .181.073.338.205.459l1.595 1.474a.627.627 0 00.894-.036.63.63 0 00-.036-.894l.012.012z"/><path d="M12.169 16.763a5.1 5.1 0 10.002 10.202 5.1 5.1 0 00-.002-10.202zm0 8.931c-2.115 0-3.843-1.716-3.843-3.843s1.716-3.843 3.843-3.843 3.843 1.716 3.843 3.843-1.716 3.843-3.843 3.843zM24.351 16.823a5.1 5.1 0 10.002 10.202 5.1 5.1 0 00-.002-10.202zm0 8.931c-2.115 0-3.843-1.716-3.843-3.843s1.716-3.843 3.843-3.843 3.843 1.716 3.843 3.843-1.728 3.843-3.843 3.843z"/><path d="M25.789 22.757c-.447.024-.58.073-.604.302-.024.218-.23.314-.23.314-1.027 0-1.801-1.305-1.982-1.764-.169-.459.024-.435.338-.508s.133-1.172.024-1.511c-.109-.338-.677-.036-.677-.036s-.508.145-.689 1.039c-.193.918.785 2.151 1.027 2.381.23.23 1.269 1.353 2.417 1.353s1.39-.943 1.414-1.16-.568-.423-1.015-.399l-.024-.012z"/></g></svg>