<svg xmlns="http://www.w3.org/2000/svg" width="36" height="36" viewBox="0 0 36 36"><path d="M20.347,11.576h1.719v2.651a.651.651,0,1,0,1.3,0v-3.3a.651.651,0,0,0-.651-.651h-2.37a.651.651,0,0,0,0,1.3Z" fill="#e74b18"/><path d="M15.642,28.668H6.86V11.576H8.578a.651.651,0,1,0,0-1.3H6.209a.651.651,0,0,0-.652.651v18.4a.652.652,0,0,0,.652.651h9.433a.652.652,0,0,0,0-1.3Z" fill="#e74b18"/><path d="M29.791,15.462H17.528a.652.652,0,0,0-.651.651V29.32a.652.652,0,0,0,.651.651H29.791a.652.652,0,0,0,.652-.651V16.113A.652.652,0,0,0,29.791,15.462ZM29.14,28.668H18.18v-11.9H29.14Z" fill="#e74b18"/><path d="M18.944,13.934a.651.651,0,1,0,0-1.3h-.293V10.218a4.189,4.189,0,1,0-8.377,0v2.414H9.982a.651.651,0,0,0,0,1.3h1.887a.651.651,0,0,0,0-1.3h-.293V10.218a2.887,2.887,0,0,1,5.773,0v2.414h-.292a.651.651,0,1,0,0,1.3Z" fill="#e74b18"/><path d="M20.358,19.123h.292v1a3.246,3.246,0,0,0,6.491,0v-1h.292a.652.652,0,0,0,0-1.3H25.547a.652.652,0,1,0,0,1.3h.292v1a1.943,1.943,0,0,1-3.886,0v-1h.292a.652.652,0,0,0,0-1.3H20.358a.652.652,0,0,0,0,1.3Z" fill="#e74b18"/><path d="M16.3,10.925a.65.65,0,0,0-.651-.651H13.272a.651.651,0,1,0,0,1.3h2.381A.65.65,0,0,0,16.3,10.925Z" fill="#e74b18"/></svg>