<svg xmlns="http://www.w3.org/2000/svg" width="36" height="36" viewBox="0 0 36 36"><path d="M32.5,22.423a5.4,5.4,0,1,0-8.11,4.664v3.247a.542.542,0,0,0,.976.326L27.1,28.347l1.734,2.313a.541.541,0,0,0,.434.216.56.56,0,0,0,.171-.027.543.543,0,0,0,.371-.515V27.087A5.4,5.4,0,0,0,32.5,22.423Zm-5.4,3.992a3.992,3.992,0,1,1,3.991-3.992A4,4,0,0,1,27.1,26.415Z" fill="#e74b18"/><path d="M13.646,17.505l1.278,1.383a2.487,2.487,0,0,0,3.691,0l1.279-1.383,1.628,1.451a6.577,6.577,0,0,1,.822-1.062L20.8,16.521,26.5,10.362c.069-.075.124-.148.179-.22a1.351,1.351,0,0,1,.038.307v5.42c.129-.007.256-.02.387-.02a6.6,6.6,0,0,1,.939.075V10.449a2.7,2.7,0,0,0-1.674-2.5,2.215,2.215,0,0,0-.978-.2H8.152a2.218,2.218,0,0,0-.978.2,2.7,2.7,0,0,0-1.674,2.5v10.8a2.7,2.7,0,0,0,1.654,2.5,2.184,2.184,0,0,0,1,.2H20.711a6.591,6.591,0,0,1-.176-1.35H8.152a1.3,1.3,0,0,1-.189-.019,1.67,1.67,0,0,1,.133-.131ZM8.152,9.1H25.387a1.306,1.306,0,0,1,.35.054,1.243,1.243,0,0,1-.206.283L17.65,17.962a1.2,1.2,0,0,1-1.761,0L8.009,9.436A1.224,1.224,0,0,1,7.8,9.153,1.306,1.306,0,0,1,8.152,9.1ZM7.223,21.433a3.1,3.1,0,0,0-.3.311,1.354,1.354,0,0,1-.1-.5v-10.8a1.351,1.351,0,0,1,.038-.307c.055.072.11.145.179.22l5.693,6.159Z" fill="#e74b18"/></svg>