<svg xmlns="http://www.w3.org/2000/svg" width="36" height="36" viewBox="0 0 36 36"><path d="M28.217,9.583a2.35,2.35,0,0,0-1.041-.208H8.824a2.35,2.35,0,0,0-1.041.208A2.875,2.875,0,0,0,6,12.25v11.5a2.878,2.878,0,0,0,1.761,2.66,2.335,2.335,0,0,0,1.063.215H27.176a2.335,2.335,0,0,0,1.063-.215A2.878,2.878,0,0,0,30,23.75V12.25A2.875,2.875,0,0,0,28.217,9.583Zm.371,2.667v11.5a1.441,1.441,0,0,1-.1.527,3.083,3.083,0,0,0-.322-.331L22.3,18.715l6.062-6.558c.074-.08.132-.157.191-.234A1.464,1.464,0,0,1,28.588,12.25Zm-1.412-1.438a1.353,1.353,0,0,1,.373.058,1.37,1.37,0,0,1-.22.3L18.937,20.25a1.283,1.283,0,0,1-1.875,0L8.671,11.171a1.37,1.37,0,0,1-.22-.3,1.358,1.358,0,0,1,.373-.058ZM7.513,24.277a1.441,1.441,0,0,1-.1-.527V12.25a1.464,1.464,0,0,1,.04-.327c.059.077.117.154.191.234l6.062,6.558-5.87,5.231A3.083,3.083,0,0,0,7.513,24.277Zm1.311.91a1.342,1.342,0,0,1-.2-.02c.038-.041.084-.087.143-.14l5.909-5.265,1.361,1.473a2.646,2.646,0,0,0,3.93,0l1.361-1.473,5.909,5.265c.059.053.105.1.143.14a1.342,1.342,0,0,1-.2.02Z" fill="#e74b18"/></svg>