<?xml version="1.0" encoding="utf-8"?>
<!-- Generator: Adobe Illustrator 26.0.1, SVG Export Plug-In . SVG Version: 6.00 Build 0)  -->
<svg version="1.1" id="Livello_1" xmlns="http://www.w3.org/2000/svg" xmlns:xlink="http://www.w3.org/1999/xlink" x="0px" y="0px"
	 viewBox="0 0 36 36" style="enable-background:new 0 0 36 36;" xml:space="preserve">
<style type="text/css">
	.st0{fill:#E74B18;}
</style>
<g>
	<path class="st0" d="M13.6,17.5l1.3,1.4c0.9,1,2.5,1.1,3.5,0.2c0.1-0.1,0.1-0.1,0.2-0.2l1.3-1.4l1.6,1.5c0.2-0.4,0.5-0.7,0.8-1.1
		l-1.5-1.4l5.7-6.2c0.1-0.1,0.1-0.1,0.2-0.2c0,0.1,0,0.2,0,0.3v5.4c0.1,0,0.3,0,0.4,0c0.3,0,0.6,0,0.9,0.1v-5.5
		c0-1.1-0.7-2.1-1.7-2.5c-0.3-0.1-0.6-0.2-1-0.2H8.2c-0.3,0-0.7,0.1-1,0.2c-1,0.4-1.7,1.4-1.7,2.5v10.8c0,1.1,0.6,2.1,1.7,2.5
		c0.3,0.1,0.7,0.2,1,0.2h12.6c-0.1-0.4-0.2-0.9-0.2-1.4H8.2c-0.1,0-0.1,0-0.2,0c0,0,0.1-0.1,0.1-0.1L13.6,17.5z M8.2,9.1h17.2
		c0.1,0,0.2,0,0.4,0.1c-0.1,0.1-0.1,0.2-0.2,0.3L17.6,18c-0.5,0.5-1.2,0.5-1.7,0.1c0,0,0,0-0.1-0.1L8,9.4C7.9,9.4,7.9,9.3,7.8,9.2
		C7.9,9.1,8,9.1,8.2,9.1z M7.2,21.4c-0.1,0.1-0.2,0.2-0.3,0.3c-0.1-0.2-0.1-0.3-0.1-0.5V10.4c0-0.1,0-0.2,0-0.3
		C6.9,10.2,7,10.3,7,10.4l5.7,6.2L7.2,21.4z"/>
	<path class="st0" d="M26.3,24.5V24h-3.6v2.1c0,0.6,0.5,1,1,1c0,0,0,0,0,0H31c0.6,0,1-0.4,1-1c0,0,0,0,0,0V24h-3.6v0.5H26.3z
		 M31.5,19.9h-2.1v-1l-1-1h-2.1l-1,1v1h-2.1c-0.6,0-1,0.5-1,1v1.6c0,0.6,0.4,1,1,1c0,0,0,0,0,0h3.1v-1h2.1v1h3.1c0.6,0,1-0.5,1-1
		v-1.6C32.6,20.3,32.1,19.9,31.5,19.9z M28.4,19.9h-2.1v-1h2.1V19.9z"/>
</g>
</svg>
