<svg xmlns="http://www.w3.org/2000/svg" width="36" height="36" viewBox="0 0 36 36"><path d="M13.593,17.405l1.27,1.374a2.47,2.47,0,0,0,3.667,0l1.27-1.374,1.619,1.441a6.582,6.582,0,0,1,.815-1.055L20.7,16.427l5.656-6.119c.069-.075.123-.147.178-.218a1.334,1.334,0,0,1,.038.3v5.384c.128-.007.254-.019.384-.019a6.513,6.513,0,0,1,.933.074V10.4A2.682,2.682,0,0,0,26.23,7.907a2.193,2.193,0,0,0-.971-.194H8.134a2.185,2.185,0,0,0-.97.194A2.682,2.682,0,0,0,5.5,10.4v10.73a2.684,2.684,0,0,0,1.643,2.482,2.185,2.185,0,0,0,.991.2H20.613a6.522,6.522,0,0,1-.175-1.342H8.134a1.274,1.274,0,0,1-.187-.019c.035-.038.078-.081.132-.13ZM8.134,9.054H25.259a1.283,1.283,0,0,1,.347.053,1.264,1.264,0,0,1-.205.281l-7.83,8.471a1.2,1.2,0,0,1-1.749,0L7.992,9.388a1.264,1.264,0,0,1-.205-.281A1.289,1.289,0,0,1,8.134,9.054ZM7.212,21.307a3.058,3.058,0,0,0-.3.31,1.342,1.342,0,0,1-.095-.492V10.4a1.334,1.334,0,0,1,.038-.3c.055.071.109.143.178.218l5.657,6.119Z" fill="#e74b18"/><path d="M27.135,16.842A5.365,5.365,0,1,0,32.5,22.207,5.371,5.371,0,0,0,27.135,16.842Zm0,9.331A3.966,3.966,0,1,1,31.1,22.207,3.969,3.969,0,0,1,27.135,26.173Z" fill="#e74b18"/><path d="M29.132,21.508h-1.3v-1.3a.7.7,0,0,0-1.4,0v1.3h-1.3a.7.7,0,0,0,0,1.4h1.3v1.3a.7.7,0,1,0,1.4,0v-1.3h1.3a.7.7,0,0,0,0-1.4Z" fill="#e74b18"/></svg>