<svg xmlns="http://www.w3.org/2000/svg" width="36" height="36" viewBox="0 0 36 36"><path d="M28.833,17.283h-4.3v-8.9a.668.668,0,0,0-.668-.668H7.167a.668.668,0,0,0-.667.668v16.8c0,3.1,3.187,3.1,4.234,3.1H26.72v-.05c.483-.149,2.78-.97,2.78-3.154V17.95A.667.667,0,0,0,28.833,17.283Zm-18.1,9.667c-2.114,0-2.9-.478-2.9-1.763V9.05H23.2V25.52l0,.028v.01l0,.015a2.849,2.849,0,0,0,.453,1.377Zm17.431-1.869c0,1.186-1.412,1.736-1.788,1.862-.075,0-.138-.013-.207-.019a1.674,1.674,0,0,1-1.637-1.42V18.617h3.632Z" fill="#e74b18"/><path d="M20.41,12.445H10.734a.668.668,0,0,0,0,1.335H20.41a.668.668,0,0,0,0-1.335Z" fill="#e74b18"/><path d="M20.41,17.333H10.734a.668.668,0,0,0,0,1.335H20.41a.668.668,0,0,0,0-1.335Z" fill="#e74b18"/><path d="M20.41,22.116H16.943a.668.668,0,0,0,0,1.335H20.41a.668.668,0,0,0,0-1.335Z" fill="#e74b18"/></svg>