<svg xmlns="http://www.w3.org/2000/svg" width="36" height="36" viewBox="0 0 36 36"><path d="M16.844,20.428a1.113,1.113,0,0,0,0,.55,1,1,0,0,0,1,.72h1.74l.86,1.28a.934.934,0,0,0,.81.52h.06a1.08,1.08,0,0,0,.94-.65.339.339,0,0,0,0-.09l.45-1.58,1.36-.46a1.061,1.061,0,0,0,.94-.86,1.1,1.1,0,0,0-.34-.88l-.09-.07-1.38-1V16.4a1,1,0,0,0-1.63-.87l-1.24.95L18.734,16a1,1,0,0,0-1,.15,1.061,1.061,0,0,0-.32.9v.13l.65,1.57-1.1,1.49A.672.672,0,0,0,16.844,20.428Zm2.34-1.22a.619.619,0,0,0,.09-.56l-.5-1.38,1.5.45a.589.589,0,0,0,.53-.1l1.2-.9v1.55a.6.6,0,0,0,.26.5l1.24.86-1.44.45a.609.609,0,0,0-.4.41l-.43,1.49-.86-1.26a.6.6,0,0,0-.5-.26h-1.58Z" fill="#e74b18"/><path d="M14.764,10.508h0a3,3,0,0,0-2,1,.6.6,0,0,0,0,.848v0a.61.61,0,0,0,.85,0,1.91,1.91,0,0,1,1.16-.61h0a1.127,1.127,0,0,1,.82.43,1.318,1.318,0,0,1,.43,1,1.933,1.933,0,0,1-.76,1.12.59.59,0,0,0-.2.79.581.581,0,0,0,.8.18l.03-.02a3,3,0,0,0,1.28-2,2.438,2.438,0,0,0-.74-2A2.268,2.268,0,0,0,14.764,10.508Z" fill="#e74b18"/><path d="M10.064,15.128a4.846,4.846,0,0,0,.66,0,7.515,7.515,0,0,0,4.07-1.43.622.622,0,1,0-.74-1,6,6,0,0,1-3.84,1.24,4.556,4.556,0,0,1-3.05-1.42.6.6,0,0,0-.834-.154l-.006,0a.6.6,0,0,0-.15.83A5.612,5.612,0,0,0,10.064,15.128Z" fill="#e74b18"/><path d="M7.614,15.688a6.384,6.384,0,0,0-1.55,2.81.6.6,0,0,0,.43.73.42.42,0,0,0,.15,0,.6.6,0,0,0,.58-.45,5.189,5.189,0,0,1,1.19-2.15.6.6,0,0,0-.8-.9Z" fill="#e74b18"/><path d="M28.794,16.968c-.07-.07-6.7-6.62-7.67-7.65a3.814,3.814,0,0,0-2.46-1.28l-3.82-.32a4.938,4.938,0,0,0-4.2,1.11,4.74,4.74,0,0,0-1.37,3.7.6.6,0,0,0,1.2-.075.462.462,0,0,0-.008-.065,3.581,3.581,0,0,1,1-2.71,3.81,3.81,0,0,1,3.2-.77l3.93.33a2.658,2.658,0,0,1,1.65.9c1,1.05,7.43,7.41,7.75,7.72a2.255,2.255,0,0,1,.79,1.38,1.358,1.358,0,0,1-.5,1c-1.7,1.62-6.12,6.16-6.21,6.25a1.843,1.843,0,0,1-1.2.66,1.944,1.944,0,0,1-1.44-.89l-8-8a3.593,3.593,0,0,1-.68-1.94.6.6,0,0,0-1.2.09,4.661,4.661,0,0,0,1,2.68l8,8a3,3,0,0,0,2.31,1.29h0a3,3,0,0,0,2.08-1.07c.05,0,4.46-4.56,6.14-6.17a2.5,2.5,0,0,0,.87-1.95A3.319,3.319,0,0,0,28.794,16.968Z" fill="#e74b18"/></svg>