<svg xmlns="http://www.w3.org/2000/svg" viewBox="0 0 158 100">
    <title>Take Care</title>
    <path d="M0.3 99.4c-1.5-2.7 3.4-3.4 4.2-3.4s134.5-10.1 134.5-10.1 2.3-0.8 1.7 0.6c0 0 17.4-1.7 17.4-0.6 0 1.9-37.1 5.8-83.9 9C26.2 98 1.4 101.5 0.3 99.4z" fill="#9F338E"/>
    <path d="M6.4 88.1c0 0-0.1 0-0.2-0.1 0-0.1-0.1-0.2-0.1-0.3l-0.2-0.3c-0.1-0.1-0.1-0.2-0.1-0.3 0 0 0-0.1 0.1-0.1 0 0 0.1-0.1 0.1-0.1 0 0 0-0.1 0-0.1 0 0-0.1-0.1-0.1-0.2 0.1-0.1 0.1-0.2 0.2-0.5 0-0.2 0.1-0.4 0.1-0.6 0-0.2 0-0.4 0-0.6C6 85 6 84.8 5.9 84.7c0 0 0 0 0 0 0-0.1 0-0.1-0.1-0.1 0 0-0.1-0.1-0.1-0.1 0-0.1-0.1-0.2-0.1-0.3 0 0 0-0.1 0-0.1 0 0 0 0 0.1 0 0 0 0 0 0 0 0 0 0 0 0-0.1 0-0.2 0-0.3 0-0.4 0-0.1 0.1-0.3 0.1-0.4C5.9 83 6 82.8 6.1 82.7c0.1-0.1 0.1-0.2 0.2-0.3 0 0 0.1 0 0.1 0 0 0 0 0 0 0 0 0 0.1 0 0.2-0.1 0.1-0.1 0.2-0.2 0.3-0.4 0.1-0.1 0.1-0.3 0.1-0.4C6.9 81.4 7 81.2 7.1 81c0.1-0.2 0.2-0.4 0.3-0.6 0.1-0.2 0.2-0.3 0.3-0.5 0.1-0.1 0.3-0.2 0.4-0.3 0.1-0.1 0.3-0.2 0.4-0.3 0.2-0.1 0.3-0.2 0.5-0.2 0.2-0.1 0.4-0.1 0.6-0.1l0.1 0c0.1 0 0.3 0 0.4 0 0.1 0 0.1 0 0.2-0.1 0.4 0 0.7 0.1 1 0.2 0.3 0.1 0.6 0.2 0.8 0.4 0.1 0.2 0.3 0.5 0.4 0.7 0.1 0.3 0.3 0.5 0.3 0.8 0.1 0.3 0.1 0.6 0.1 0.9 0 0.3 0 0.6-0.2 0.9 -0.2 0.3-0.6 0.6-0.9 0.8 -0.4 0.2-0.8 0.4-1.2 0.6 -0.5 0.2-0.9 0.3-1.4 0.4 -0.5 0.1-1 0.2-1.4 0.4 -0.1 0-0.1 0.1-0.1 0.2 0 0.2 0 0.5 0 0.7 0 0.2 0 0.5 0 0.7 0 0.2-0.1 0.5-0.2 0.7 -0.1 0.2-0.2 0.4-0.3 0.6 -0.2 0-0.3 0-0.5 0.1 -0.1 0-0.3 0.1-0.4 0.1L6.4 88.1zM10 81.2c-0.2 0-0.5 0-0.7 0.1 -0.3 0.1-0.5 0.2-0.7 0.4 -0.1 0.2-0.1 0.4-0.2 0.5 0 0.1-0.1 0.2-0.1 0.4 0 0 0 0.1 0 0.1 0 0.1 0.1 0.1 0.2 0.2 0 0 0.1 0.1 0.1 0.1 0 0 0.1 0 0.1 0 0 0 0 0 0 0 0.2-0.1 0.4-0.2 0.6-0.2 0.2 0 0.5-0.1 0.7-0.2 0.2-0.1 0.5-0.2 0.7-0.3 0.3-0.1 0.5-0.2 0.7-0.4 0 0 0-0.1 0-0.1 0 0 0-0.1-0.1-0.1 -0.1-0.1-0.3-0.2-0.6-0.3C10.6 81.2 10.4 81.2 10 81.2 10.1 81.2 10 81.2 10 81.2zM20.5 87.8c-0.1 0-0.3 0-0.5 0 -0.5-0.1-1-0.2-1.7-0.5 -0.3-0.1-0.6-0.2-0.9-0.3 -0.2-0.1-0.4-0.2-0.6-0.3 -0.2-0.1-0.3-0.2-0.4-0.3L16 86c0 0-0.1 0-0.1 0 0 0 0 0 0 0 0 0-0.1 0.1-0.1 0.1 -0.1 0.4-0.2 0.7-0.2 0.9 -0.1 0.2-0.2 0.4-0.3 0.5 -0.2 0-0.2 0-0.3 0.1 0 0-0.1 0.1-0.1 0.1 0 0-0.1-0.1-0.1-0.1 0 0-0.1-0.1-0.1-0.1 0 0-0.1 0-0.2 0 0 0 0-0.1 0-0.1 0-0.1-0.1-0.1-0.2-0.2 0 0 0-0.1 0-0.1 0-0.1 0-0.1 0-0.2 0 0 0-0.1 0-0.1 0 0 0-0.1 0-0.2 0 0-0.1-0.1-0.1-0.1 0 0 0 0 0 0 0-0.1-0.1-0.2-0.1-0.2 0-0.1 0.1-0.2 0.1-0.4 0-0.1 0.1-0.3 0.1-0.4 0-0.1 0.1-0.3 0.1-0.4 0-0.1 0-0.2 0-0.4 0 0 0 0 0-0.1 0-0.1 0-0.1 0-0.2 0-0.1 0-0.2 0-0.2 0-0.1 0-0.2 0-0.2 0.1-0.2 0.2-0.4 0.2-0.7 0.1-0.3 0.1-0.5 0.1-0.8 0-0.3 0.1-0.5 0.1-0.8 0-0.2 0.1-0.4 0.2-0.6 0 0 0 0 0 0 0.1 0 0.1 0 0.2 0 0.1 0 0.1 0.1 0.2 0.1 0 0 0.1 0.1 0.1 0.1 0 0 0 0 0 0 0 0 0.1 0 0.1 0 0.3-0.2 0.5-0.5 0.7-0.8 0.2-0.3 0.4-0.6 0.6-0.8 0.2-0.3 0.4-0.5 0.6-0.7 0.2-0.2 0.5-0.3 0.8-0.4 0.2 0.1 0.4 0.3 0.6 0.4 0.2 0.1 0.4 0.3 0.6 0.5 0.1 0.1 0.2 0.1 0.2 0.1 0 0 0.1 0.1 0.1 0.1l0 0.1c0 0 0 0.1 0.1 0.1 0.1 0.1 0.2 0.2 0.3 0.3 0.1 0.1 0.1 0.3 0.2 0.4l0.2 0.5c0.1 0.1 0.1 0.3 0.2 0.4 0 0 0 0.1 0 0.1 0 0.1 0 0.1 0 0.2 0 0 0 0.1 0 0.1 0 0 0 0 0 0.1 0 0.4-0.1 0.7-0.3 1 -0.2 0.3-0.5 0.5-0.8 0.6 -0.3 0.2-0.7 0.3-1.1 0.5 -0.4 0.1-0.8 0.3-1.1 0.4 -0.1 0-0.1 0.1-0.1 0.1 0 0.1 0 0.1 0.1 0.2 0 0 0 0.1 0.1 0.1l0.6 0.3c0.1 0.1 0.3 0.2 0.4 0.2 0.1 0.1 0.3 0.1 0.4 0.1 0.1 0 0.3 0.1 0.6 0.1 0 0 0.9 0.2 1 0.2 0.1 0 0.2 0 0.4 0 0.1 0 0.3 0 0.5 0 0 0 0.1 0.1 0.1 0.2 0.1 0.1 0.1 0.2 0.1 0.3 0 0.1 0 0.2 0 0.3 0 0.1 0 0.1-0.1 0.2 0 0 0 0.1 0 0.1 0 0 0 0 0 0.1l-0.1 0.2c0 0.1-0.1 0.1-0.1 0.1 0 0-0.1 0-0.1 0.1C21 87.8 20.8 87.8 20.5 87.8zM17.8 80.9c0 0-0.1 0-0.1 0.1 -0.1 0.2-0.2 0.3-0.3 0.4 -0.1 0.1-0.2 0.3-0.4 0.4 -0.1 0.1-0.2 0.3-0.3 0.5 -0.1 0.2-0.2 0.4-0.2 0.6 0 0 0 0.1 0 0.1 0 0 0.1 0 0.1 0 0 0 0 0 0 0 0.3-0.1 0.7-0.2 1.1-0.3l1-0.5c0.1 0 0.1-0.1 0.1-0.2 -0.1-0.3-0.2-0.6-0.4-0.8C18.2 81.1 18 81 17.8 80.9 17.8 80.9 17.8 80.9 17.8 80.9zM24.6 87.3c0.3 0 0.6 0 0.9-0.1 0.3-0.1 0.6-0.1 0.8-0.2 0.1 0 0.2 0 0.2 0l0.1 0c0.4-0.1 0.7-0.2 1-0.2 0.3-0.1 0.5-0.1 0.8-0.2 0.2-0.1 0.4-0.2 0.6-0.4 0.1-0.1 0.3-0.3 0.4-0.6 0 0 0 0 0 0 0-0.1-0.1-0.1-0.1-0.2l0-0.2c-0.1 0-0.2 0-0.3-0.1 -0.1-0.1-0.1-0.1-0.2-0.2l-0.2-0.2c0-0.1-0.1-0.1 0-0.1 -0.2 0.1-0.5 0.2-0.8 0.2 -0.2 0-0.5 0.1-0.7 0.2 -0.3 0-0.6 0-0.7 0.1l-0.6 0.1c-0.2 0-0.4 0.1-0.6 0.1 -0.1 0-0.2 0-0.3 0 -0.2 0-0.4 0-0.6 0 0 0-0.1 0-0.1-0.1 0 0 0-0.1 0-0.1 0.1-0.3 0.2-0.5 0.3-0.8 0.1-0.2 0.3-0.5 0.4-0.7 0 0 0.1-0.1 0.1-0.1 0 0 0 0 0 0 0.1 0 0.2 0 0.3 0l0.2 0c0.1 0 0.2 0 0.3 0 0.1 0 0.2 0 0.3 0l0.2 0c0.1 0 0.1 0 0.2 0 0 0 0 0 0.1 0 0 0 0.1 0 0.1 0 0 0 0.1 0 0.1 0 0.2 0 0.4 0 0.6-0.1 0.2-0.1 0.3-0.1 0.5-0.2 0.2-0.1 0.3-0.2 0.5-0.3 0.2-0.1 0.3-0.2 0.4-0.3 0-0.1 0-0.1 0-0.2 0-0.1 0-0.1 0-0.1 -0.1 0-0.2 0-0.2-0.1 -0.1 0-0.2-0.1-0.2-0.2 -0.1-0.1-0.1-0.1-0.2-0.2 -0.1-0.1-0.1-0.1-0.2-0.2 0 0 0 0 0-0.1 -0.3 0-0.7 0.1-1 0.1 -0.3 0-0.6 0.1-0.9 0.1 -0.1 0-0.2 0-0.2 0 0 0-0.1 0-0.1-0.1 0-0.1-0.1-0.2-0.1-0.3 0-0.1 0-0.1 0-0.2 0 0 0-0.1 0-0.1 0 0 0-0.1 0.1-0.1 0.1 0 0.2-0.1 0.3-0.1 0.1 0 0.1-0.1 0.2-0.1 0 0 0.2 0 0.2 0 0.1 0 0.2 0 0.3 0 0.1 0 0.2-0.1 0.2-0.1 0 0 0.1 0 0.1 0 0.3-0.2 0.6-0.3 0.9-0.4l0.9-0.2c0.3-0.1 0.6-0.2 0.8-0.3 0.2-0.1 0.4-0.3 0.6-0.6 0-0.1 0-0.1 0-0.1 0 0 0-0.1 0-0.2 0 0 0 0 0 0 -0.2-0.1-0.3-0.2-0.5-0.2 -0.1-0.1-0.2-0.2-0.3-0.3 0 0 0 0 0 0 0 0.1-0.1 0.1-0.1 0.1 -0.1 0-0.2 0-0.3-0.1 -0.4 0.1-0.7 0.2-1 0.2 -0.3 0.1-0.6 0.1-0.9 0.2 -0.3 0.1-0.6 0.1-0.9 0.2 -0.3 0.1-0.6 0.2-1 0.3 -0.2 0.1-0.4 0.1-0.6 0.2 -0.2 0-0.4 0.1-0.5 0.2 -0.1 0.1-0.3 0.1-0.4 0.2C23.2 80 23.1 80 23 80.2c0 0.1 0.1 0.3 0.1 0.4 0 0.2 0.1 0.3 0.1 0.5 0 0.1 0.1 0.3 0.1 0.4 0.1 0.1 0.2 0.2 0.3 0.4 0 0 0.1 0.1 0 0.2 -0.1 0.2-0.1 0.4-0.2 0.5l-0.2 0.4c-0.1 0.1-0.1 0.3-0.2 0.5 -0.1 0.2-0.1 0.3-0.2 0.5 0 0 0 0 0 0 0 0 0 0-0.1 0 0 0.1 0 0.1-0.1 0.1 0 0.1 0 0.3-0.1 0.4 -0.1 0.1-0.1 0.2-0.1 0.3 0 0.1 0 0.3 0 0.4 0 0.2 0 0.3 0.1 0.5l0.1 0.5c0 0.1 0.1 0.2 0.1 0.4 0.1 0.1 0.2 0.1 0.2 0.3 0 0.1 0.1 0.1 0.1 0.2 0.2 0.2 0.4 0.3 0.7 0.3C24 87.3 24.3 87.3 24.6 87.3L24.6 87.3zM31.8 86.9c0 0 0.1 0 0.1-0.1 0 0 0-0.1 0-0.1 0 0 0.1-0.1 0.1-0.1 0.1 0 0.2 0 0.2 0 0-0.1 0.1-0.1 0.1-0.2 0-0.1 0-0.2 0.1-0.3 0-0.1 0.1-0.2 0.1-0.3 0-0.1 0-0.2 0-0.3 0-0.1 0.1-0.2 0.1-0.2 0-0.1 0.1-0.1 0.1-0.2 0 0 0-0.1 0-0.1 0-0.1 0.1-0.2 0.2-0.2 0-0.1 0.1-0.1 0.1-0.2 0-0.1 0.1-0.2 0.1-0.3 0.1-0.1 0.1-0.2 0.3-0.2 0 0 0 0 0 0 0.1 0 0.1 0 0.1 0.1 0.2 0.5 0.5 0.9 0.8 1.3 0.3 0.4 0.7 0.7 1 0.9 0.2 0.1 0.3 0.1 0.5 0.1 0 0 0.1 0 0.1 0 0.1 0 0.3-0.1 0.4-0.2 0.1-0.1 0.2-0.2 0.3-0.3 0.1-0.1 0.2-0.2 0.3-0.2 0 0 0 0 0-0.1 0 0 0-0.1 0.1-0.2 0 0 0-0.1 0-0.1 0 0 0.1-0.1 0.1-0.1 0 0 0.1 0 0.1 0 0.1-0.2 0.1-0.3 0.2-0.5 0.1-0.2 0.2-0.4 0.3-0.4 0-0.2 0.1-0.4 0.2-0.7l0.1-0.3 0.1-0.4c0-0.3 0-0.5 0-0.7 0-0.2 0-0.4 0.1-0.6l0.1-0.6c0-0.2 0.1-0.4 0.1-0.7 0 0 0-0.1 0.1-0.1 0.1 0 0.1-0.1 0.2-0.2 0-0.1 0.1-0.2 0.1-0.2 0-0.1 0-0.2 0.1-0.3 0-0.1 0-0.2 0.1-0.3 0-0.1-0.1-0.3-0.2-0.4 -0.1-0.1-0.2-0.3-0.3-0.4 -0.1 0-0.3-0.1-0.4-0.1 -0.1-0.1-0.2-0.1-0.3-0.2 -0.1-0.1-0.2-0.1-0.3-0.2 -0.1 0-0.1-0.1-0.2-0.1 0 0.1-0.1 0.2-0.1 0.3l-0.1 0.4c0 0.1-0.1 0.3-0.1 0.4 0 0.1-0.1 0.3-0.2 0.3 -0.1 0.5-0.1 0.9-0.2 1.4 -0.1 0.5-0.1 0.9-0.2 1.3 -0.1 0.4-0.3 0.8-0.5 1.1 -0.2 0.3-0.5 0.6-0.8 0.9 0 0-0.1 0-0.1 0 0 0 0 0-0.1 0 0 0-0.1-0.1-0.1-0.1 -0.1-0.3-0.1-0.5-0.1-0.8 0-0.2 0-0.5 0-0.7 0-0.2 0-0.4 0-0.6 0-0.2 0-0.4-0.1-0.6 0-0.1 0-0.1 0-0.1 0 0 0 0 0.1 0 0 0 0 0 0 0l0.1-0.1c0-0.1 0-0.1 0-0.2 0-0.1 0-0.1 0.1-0.2 0 0 0-0.1 0-0.1 0 0 0-0.1 0-0.2 0-0.1 0-0.1 0-0.1 0 0 0 0 0.1 0 0 0 0 0 0.1 0 0 0 0 0 0 0 0 0 0 0 0 0 0 0 0-0.1 0-0.2 0 0 0-0.1 0-0.2 0 0 0 0 0.1-0.1 0-0.2-0.1-0.3-0.2-0.5 -0.1-0.2-0.3-0.3-0.4-0.5 -0.2-0.1-0.4-0.2-0.6-0.3 -0.2-0.1-0.4-0.2-0.5-0.2 -0.4 1.1-0.9 2.2-1.4 3.3 -0.5 1.1-1 2.2-1.4 3.2 0 0.1 0.1 0.1 0.1 0.2 0 0.1 0 0.2 0 0.3 0.1 0.1 0.1 0.3 0.2 0.4 0.1 0.2 0.2 0.3 0.3 0.5 0.1 0.2 0.2 0.3 0.3 0.4 0.1 0.1 0.2 0.2 0.4 0.2C31.8 86.9 31.8 86.9 31.8 86.9zM40.8 86.7c-0.2 0-0.3-0.1-0.4-0.2 -0.1-0.1-0.2-0.3-0.3-0.4 -0.1-0.2-0.1-0.4-0.1-0.6 0-0.2-0.1-0.4-0.1-0.7 0 0 0-0.1 0.1-0.2 0.1-0.1 0.1-0.2 0.1-0.4 0.1-0.2 0.1-0.5 0.2-0.7 0.1-0.3 0.1-0.5 0.1-0.8h0c0 0 0 0 0.1 0 0.1 0 0.1-0.1 0.1-0.1 0-0.5 0-1-0.1-1.4 -0.1-0.5-0.2-0.9-0.3-1.4 0-0.1 0-0.1 0-0.1 0 0 0-0.1 0-0.1l0.1 0c0.1 0 0.2-0.1 0.1-0.2 0-0.2 0-0.3-0.1-0.5 -0.1-0.1-0.1-0.3-0.2-0.5 0.1-0.1 0.1-0.2 0.1-0.4 0-0.1 0-0.2 0-0.2 0.5 0.1 0.9 0.3 1.4 0.5 0.5 0.2 1 0.4 1.5 0.5 0.3 0.2 0.7 0.5 1.1 0.7 0.4 0.2 0.7 0.5 1 0.8 0.3 0.3 0.6 0.6 0.8 0.9 0.2 0.3 0.3 0.8 0.4 1.3l0 0.1c0 0.1 0 0.2 0 0.2 -0.2 0.6-0.6 1-1 1.4 -0.4 0.4-0.9 0.7-1.4 1 -0.5 0.3-1 0.5-1.6 0.8C41.9 86.2 41.3 86.4 40.8 86.7zM41.7 79.8c-0.1 0-0.2 0-0.2 0.1 0 0-0.1 0.1 0 0.2 0.1 0.4 0.2 0.7 0.3 1 0.1 0.3 0.1 0.6 0.1 0.9 0 0.3 0 0.6 0 1 0 0.3-0.1 0.7-0.1 1.1 0 0 0 0.1 0 0.1 0 0 0.1 0 0.1 0 0 0 0 0 0 0 0.1 0 0.2 0 0.3-0.1 0.1 0 0.2-0.1 0.2-0.1 0.1 0 0.2-0.1 0.2-0.1 0.1 0 0.2-0.1 0.3-0.1 0.1 0 0.1 0 0.1-0.1 0 0 0-0.1 0.1-0.1 0.1 0 0.1-0.1 0.2-0.2 0.2-0.1 0.4-0.1 0.5-0.2 0.2-0.1 0.4-0.2 0.6-0.3 0.2-0.1 0.3-0.3 0.5-0.4 0.1-0.2 0.3-0.4 0.3-0.6 0 0 0-0.1 0-0.1 -0.1-0.1-0.2-0.2-0.3-0.3 -0.1-0.1-0.2-0.2-0.3-0.3 -0.1-0.1-0.2-0.2-0.3-0.2 -0.1-0.1-0.1-0.2-0.2-0.3 0 0-0.1-0.1-0.1-0.1 -0.1 0-0.2 0-0.3-0.1l-0.3-0.1c-0.1-0.1-0.2-0.1-0.3-0.1 -0.1-0.1-0.3-0.1-0.4-0.1 -0.2-0.1-0.4-0.2-0.6-0.2C42 79.9 41.9 79.9 41.7 79.8 41.8 79.8 41.8 79.8 41.7 79.8 41.7 79.8 41.7 79.8 41.7 79.8zM49.7 86.3c0.2 0 0.3-0.1 0.4-0.1 0.1-0.1 0.2-0.2 0.3-0.3 0.1-0.1 0.1-0.3 0-0.6 -0.1-0.5-0.2-1-0.2-1.4 0-0.5 0-0.9 0.1-1.4 0.1-0.5 0.2-0.9 0.3-1.4 0.1-0.4 0.3-0.9 0.4-1.3 -0.1 0-0.1-0.1-0.1-0.2 0-0.1-0.1-0.2-0.1-0.3 0-0.1 0-0.2 0-0.4l0-0.2c-0.1-0.1-0.2-0.1-0.2-0.2 -0.1-0.1-0.1-0.2-0.1-0.4l-0.1-0.3c0-0.1 0-0.1-0.1-0.2 -0.1 0-0.2 0-0.2 0.1 -0.1 0-0.2 0.1-0.2 0.2 -0.1 0.1-0.1 0.1-0.2 0.2 -0.1 0.1-0.1 0.1-0.2 0.2 0 0.2 0 0.3-0.1 0.5 -0.1 0.2-0.1 0.3-0.2 0.3 0 0.1 0 0.1 0 0.2 0 0.1 0 0.2 0 0.3 0 0.1-0.1 0.2-0.2 0.2 0 0 0 0.1 0 0.1 0.1 0.1 0.1 0.2 0 0.3 -0.1 0.4-0.2 0.8-0.3 1.2 -0.1 0.4-0.2 0.8-0.2 1.1 0 0.1 0 0.3 0 0.4l0 0.5c0 0.2 0 0.3 0 0.5 0 0.2 0 0.3-0.1 0.4l0.2 0.6c0.1 0.2 0.1 0.4 0.2 0.6 0.1 0.2 0.2 0.4 0.2 0.6 0.1 0.2 0.1 0.3 0.2 0.4 0.1 0 0.1 0 0.2 0C49.6 86.3 49.6 86.3 49.7 86.3zM56 86.2l0.1 0c0.3 0 0.5-0.1 0.6-0.2 0.1-0.1 0.1-0.3 0.1-0.5l-0.1-0.1c-0.1 0-0.2-0.1-0.2-0.1 0 0-0.1 0-0.2-0.1 0 0-0.1-0.1-0.1-0.1l-0.1-0.2c0-0.1 0-0.2 0-0.3l0-0.2c0-0.1 0-0.2 0.1-0.2 0 0 0-0.1 0-0.1 0-0.1 0-0.1 0-0.2 0-0.1 0.1-0.2 0.1-0.3 0 0 0-0.1 0.1-0.1 0-0.1 0.1-0.1 0.1-0.1l0-0.2c0-0.1 0.1-0.3 0.1-0.4 0.1-0.2 0.1-0.3 0.2-0.5 0-0.2 0.1-0.3 0.1-0.5 0.1-0.1 0.1-0.3 0.2-0.4 0.1-0.2 0.1-0.4 0.2-0.6 0.1-0.2 0.1-0.3 0.2-0.5 0.1-0.2 0.1-0.3 0.2-0.5 0.1-0.2 0.1-0.4 0.2-0.6 0-0.1 0.1-0.1 0.1-0.1 0.1 0 0.3 0 0.5-0.1 0.2 0 0.4-0.1 0.6-0.1 0.3 0 0.5-0.1 0.8-0.1 0.3 0 0.6-0.1 0.9-0.1l0.3 0c0 0 0.1 0 0.1 0 0 0 0.1 0 0.1-0.1 0.1 0 0.1 0 0.2-0.1 0.1 0 0.1 0 0.2 0l0.1 0 0.1-0.2c0 0 0 0 0.1-0.1 0-0.2 0-0.4-0.1-0.5 -0.1-0.1-0.2-0.2-0.3-0.3 -0.1 0-0.1-0.1-0.2-0.1 -0.1-0.1-0.1-0.1-0.1-0.1L61.2 77c-0.1 0-0.2 0-0.3 0l-0.4 0c-0.3 0-0.6 0-0.9 0.1 -0.3 0.1-0.7 0.1-1 0.2 -0.2 0-0.4 0.1-0.7 0.1 -0.2 0-0.7 0.1-0.7 0.1 0 0-0.1 0-0.1 0 0 0-0.1-0.1-0.2-0.1 0 0-0.1 0-0.2 0l0 0 -0.1 0 -0.1 0.2c0 0-0.1 0.1-0.1 0.1l-1.2 0.2 -1 0.1c-0.3 0-0.6 0.1-1 0.1l-0.4 0 -0.1 0 0 0.1 -0.1 0.1c0 0 0 0 0 0.1 0 0.1 0 0.3 0.1 0.4 0 0.1 0.1 0.2 0.1 0.3 0 0.1 0 0.1 0.1 0.2 0 0.1 0 0.1 0 0.1l0.1 0.1c0.1 0 0.1 0.1 0.3 0.2 0.1 0 0.1 0.1 0.2 0.1 0 0 0.1 0 0.2 0 0 0 0.2 0 0.2 0l0.3 0 0.1 0c0.1 0 0.2-0.1 0.3-0.1l0.1 0 0.1 0c0.1 0 0.2 0 0.3-0.1 0 0 0.1 0 0.1 0 0 0 0.1 0 0.1 0 0 0 0.1 0 0.1 0 0 0 0.3 0 0.3-0.1 0.1 0 0.2 0 0.2 0 0 0 0.1 0 0.1 0.1 0 0 0 0.1 0 0.1L56 80.1l-0.2 0.6c0 0 0 0.1-0.1 0.1l-0.1 0.1c-0.1 0.2-0.1 0.4-0.2 0.6l-0.2 0.6c-0.1 0.4-0.2 0.7-0.3 1.1 -0.1 0.4-0.1 0.8-0.1 1.3 0 0.1 0.1 0.1 0.1 0.2 0 0.1 0.1 0.2 0.1 0.3 0 0.1 0.1 0.2 0.1 0.3 0 0.1 0.1 0.2 0.2 0.3l0 0.1 0.4 0.2c0 0 0.1 0.1 0.1 0.1l0.2 0.1C55.9 86.1 56 86.1 56 86.2 56 86.2 56 86.2 56 86.2zM62.8 85.8c0.2 0 0.3-0.1 0.4-0.1 0.1-0.1 0.2-0.2 0.3-0.3 0.1-0.1 0.1-0.3 0-0.6 -0.1-0.5-0.2-1-0.2-1.4 0-0.5 0-0.9 0.1-1.4 0.1-0.5 0.2-0.9 0.3-1.4 0.1-0.4 0.3-0.9 0.4-1.3 -0.1 0-0.1-0.1-0.1-0.2 0-0.1-0.1-0.2-0.1-0.3 0-0.1 0-0.2 0-0.4l0-0.2c-0.1-0.1-0.2-0.1-0.2-0.3 -0.1-0.1-0.1-0.2-0.1-0.4l-0.1-0.3c0-0.1 0-0.1-0.1-0.2 -0.1 0-0.2 0-0.2 0.1 -0.1 0-0.2 0.1-0.2 0.2 -0.1 0.1-0.1 0.1-0.2 0.2 -0.1 0.1-0.1 0.1-0.2 0.2 0 0.2 0 0.3-0.1 0.5 -0.1 0.2-0.1 0.3-0.2 0.3 0 0.1 0 0.1 0 0.2 0 0.1 0 0.2 0 0.3 0 0.1-0.1 0.2-0.2 0.2 0 0 0 0.1 0 0.1 0.1 0.1 0.1 0.2 0 0.3 -0.1 0.4-0.2 0.8-0.3 1.2 -0.1 0.4-0.2 0.7-0.2 1.1 0 0.1 0 0.3 0 0.4l0 0.5c0 0.2 0 0.3 0 0.5 0 0.2 0 0.3-0.1 0.4l0.2 0.6c0.1 0.2 0.1 0.4 0.2 0.6 0.1 0.2 0.2 0.4 0.2 0.6 0.1 0.2 0.1 0.3 0.2 0.4 0.1 0 0.1 0 0.2 0C62.6 85.8 62.7 85.8 62.8 85.8zM76.8 85.1C77 85 77.2 85 77.5 85c0 0 0.3 0 0.3 0 0.1 0 0.1 0 0.1 0 0.2-0.1 0.3-0.3 0.5-0.4 0.2-0.1 0.3-0.3 0.4-0.3 0-0.1 0-0.2 0-0.3 0-0.1-0.1-0.2-0.2-0.3 -0.1-0.1-0.2-0.2-0.3-0.2 -0.1-0.1-0.2-0.1-0.2-0.2 -0.4 0-0.7 0-1.1 0 -0.3 0-0.7 0-1 0 -0.7 0-1.4-0.1-2.1-0.3 0 0-0.1 0-0.1-0.1 -0.1-0.1-0.1-0.2-0.2-0.3 -0.1-0.1-0.1-0.3-0.1-0.5 0-0.1 0.1-0.2 0.1-0.2 0 0 0-0.1 0-0.2 0 0 0-0.1 0-0.1 0.1-0.1 0.3-0.3 0.4-0.5 0.1-0.2 0.3-0.3 0.4-0.5 0.2-0.2 0.3-0.3 0.5-0.4 0.2-0.1 0.4-0.2 0.6-0.3 0.3-0.3 0.6-0.6 1-0.7 0.4-0.2 0.8-0.3 1.3-0.5 0.2-0.1 0.3-0.2 0.5-0.3 0.1-0.2 0.3-0.3 0.3-0.5 0.1-0.2 0-0.3 0-0.5 -0.1-0.1-0.2-0.2-0.5-0.3 -0.1 0-0.1-0.1-0.1-0.1 0 0 0-0.1 0-0.1 -0.1 0-0.2 0-0.3-0.1 0 0 0 0 0 0 0 0-0.1-0.1-0.1-0.1 0 0 0 0 0 0 0 0-0.1-0.1-0.1-0.1l-0.1-0.1c-0.1 0-0.2 0.1-0.3 0.1 0 0-0.1 0-0.1 0 0 0-0.1 0-0.1 0 -0.1 0.1-0.1 0.1-0.2 0.2 -0.1 0.1-0.2 0.1-0.3 0.2L76.4 77c-0.1 0-0.2 0.1-0.3 0.2 -0.2 0.1-0.4 0.1-0.5 0.2 -0.1 0.1-0.3 0.2-0.4 0.3 -0.1 0.1-0.3 0.2-0.4 0.3 -0.2 0.1-0.3 0.2-0.5 0.2 -0.1 0.1-0.1 0.2-0.2 0.2l-0.2 0.2c-0.1 0.1-0.1 0.1-0.2 0.2 -0.1 0.1-0.2 0.2-0.3 0.2 -0.3 0.3-0.5 0.6-0.8 1 -0.2 0.3-0.4 0.7-0.5 1.1 0 0.3 0 0.6 0.1 0.9 0 0.3 0.1 0.6 0.2 0.9 0.1 0.3 0.2 0.6 0.4 0.8 0.1 0.2 0.3 0.4 0.5 0.6 0.2 0 0.3 0.1 0.5 0.2 0.1 0.1 0.2 0.2 0.2 0.3 0.4 0.1 0.9 0.2 1.5 0.3C75.9 85.1 76.4 85.1 76.8 85.1L76.8 85.1zM84.5 84.2c0.3-0.2 0.6-0.3 0.8-0.5 0.2-0.2 0.5-0.4 0.6-0.6 0.2-0.2 0.4-0.5 0.5-0.8l0.2-0.2 0.1 0 0-0.3c0 0 0-0.1 0.1-0.1 0 0 0.1 0 0.1 0 0 0 0 0 0 0l0.3 0.1 -0.1 0c0-0.1 0.2-0.3 0.2-0.3 0-0.1 0.1-0.1 0.1-0.2 0.1-0.2 0.2-0.4 0.3-0.7 0.1-0.3 0.3-0.6 0.4-0.9l0.1-0.7c0-0.2 0.1-0.5 0.1-0.7 0-0.2-0.1-0.3-0.1-0.4l-0.2-0.4c-0.1-0.1-0.1-0.3-0.2-0.5C88 76.9 88 76.7 88 76.5c-0.1-0.1-0.2-0.2-0.3-0.3 -0.1-0.1-0.2-0.2-0.3-0.2 -0.1 0.1-0.2 0.2-0.2 0.3 0 0 0 0.1 0 0.1l0 0.2c0 0.2-0.1 0.4-0.2 0.5 0 0.3 0 0.5-0.1 0.8 0 0.3-0.1 0.6-0.2 1 -0.1 0.3-0.2 0.6-0.4 0.9 -0.1 0.3-0.3 0.6-0.5 0.8 -0.2 0.2-0.4 0.4-0.6 0.6 -0.2 0.2-0.4 0.3-0.6 0.5 -0.2 0.1-0.4 0.3-0.7 0.4 -0.2 0.1-0.5 0.2-0.8 0.3 0 0-0.3 0-0.3 0 -0.1 0-0.1 0-0.1-0.1l-0.1-0.2c-0.1-0.2-0.1-0.4-0.2-0.6 0-0.2-0.1-0.5 0-0.7s0-0.5 0.1-0.8c0-0.3 0.1-0.5 0.2-0.6 0-0.2-0.1-0.3-0.1-0.5 -0.1-0.2-0.1-0.3-0.2-0.5l-0.1-0.3c0-0.1-0.1-0.1-0.1-0.2 -0.1-0.1-0.3-0.1-0.3-0.3 -0.1-0.1-0.1-0.2-0.2-0.3 -0.1-0.1-0.1-0.2-0.1-0.2 0 0-0.1 0-0.1 0 0 0.1-0.1 0.1-0.1 0.2 -0.1 0.1-0.2 0.2-0.3 0.2 0 0.2-0.1 0.3-0.1 0.5 0 0.1 0 0.3-0.1 0.4 0 0.1 0 0.3-0.1 0.5v0.2c-0.1 0.4-0.2 0.9-0.2 1.4 0 0.6 0.1 1.2 0.1 1.8l0 0.2c0 0 0.1 0.1 0.1 0.1l0.3 0.3c0 0 0.1 0.1 0 0.1 0 0 0 0.1-0.1 0.1l-0.1 0c0 0 0.1 0.1 0.1 0.1 0.1 0.1 0.1 0.2 0.2 0.3 0.1 0.2 0.2 0.3 0.3 0.5 0.1 0.1 0.2 0.2 0.3 0.3 0.1 0 0.1 0 0.2 0 0.1 0 0.1 0.1 0.2 0.1 0.2 0 0.3 0 0.4 0l0.2 0c0.1 0 0.4 0 0.4 0 0.1 0 0.2 0 0.4 0C83.9 84.5 84.2 84.4 84.5 84.2zM96 84.7c-0.1 0-0.3 0-0.5 0 -0.4-0.1-1-0.2-1.7-0.5 -0.3-0.1-0.6-0.2-0.9-0.3 -0.2-0.1-0.4-0.2-0.6-0.3 -0.2-0.1-0.3-0.2-0.4-0.3l-0.5-0.4c0 0-0.1 0-0.1 0 0 0 0 0 0 0 0 0-0.1 0.1-0.1 0.1 -0.1 0.4-0.2 0.7-0.2 0.9 -0.1 0.2-0.2 0.3-0.3 0.5 -0.2 0-0.2 0-0.3 0.1 0 0-0.1 0.1-0.1 0.1 0 0-0.1-0.1-0.1-0.1 0 0-0.1-0.1-0.1-0.1 0 0-0.1 0-0.2 0 0 0 0-0.1 0-0.1 0-0.1-0.1-0.1-0.2-0.2 0 0 0-0.1 0-0.1 0-0.1 0-0.1 0-0.2 0 0 0-0.1 0-0.1 0 0 0-0.1 0-0.2 0 0-0.1-0.1-0.1-0.1 0 0 0 0 0 0 0-0.1-0.1-0.2-0.1-0.2 0-0.1 0.1-0.2 0.1-0.4 0-0.1 0.1-0.3 0.1-0.4 0-0.1 0.1-0.3 0.1-0.4 0-0.1 0-0.2 0-0.4 0 0 0 0 0-0.1 0-0.1 0-0.1 0-0.2 0-0.1 0-0.2 0-0.2 0-0.1 0-0.2 0-0.2 0.1-0.2 0.2-0.4 0.2-0.7 0.1-0.3 0.1-0.5 0.1-0.8 0-0.3 0.1-0.5 0.1-0.8 0-0.2 0.1-0.4 0.2-0.6 0 0 0 0 0 0 0.1 0 0.1 0 0.2 0 0.1 0 0.2 0.1 0.2 0.1 0 0 0.1 0.1 0.1 0.1 0 0 0 0 0 0 0 0 0.1 0 0.1 0 0.3-0.2 0.5-0.5 0.7-0.8 0.2-0.3 0.4-0.6 0.6-0.8 0.2-0.3 0.4-0.5 0.6-0.7 0.2-0.2 0.5-0.3 0.8-0.4 0.2 0.1 0.4 0.3 0.6 0.4 0.2 0.1 0.4 0.3 0.6 0.5 0.1 0.1 0.2 0.1 0.2 0.1 0 0 0.1 0.1 0.1 0.1l0 0.1c0 0 0 0.1 0.1 0.1 0.1 0.1 0.2 0.2 0.3 0.3 0.1 0.1 0.1 0.3 0.2 0.4l0.2 0.5c0.1 0.1 0.1 0.3 0.2 0.4 0 0 0 0.1 0 0.1 0 0.1 0 0.1 0 0.2 0 0 0 0.1 0 0.1 0 0 0 0 0 0.1 0 0.4-0.1 0.7-0.3 1 -0.2 0.3-0.5 0.5-0.8 0.6 -0.3 0.2-0.7 0.3-1.1 0.5 -0.4 0.1-0.8 0.3-1.1 0.4 -0.1 0-0.1 0.1-0.1 0.1 0 0 0 0.1 0.1 0.2 0 0 0 0.1 0.1 0.1l0.6 0.3c0.1 0.1 0.3 0.2 0.4 0.2 0.1 0.1 0.3 0.1 0.4 0.1 0.1 0 0.3 0.1 0.6 0.1 0 0 0.9 0.2 1 0.2 0.1 0 0.2 0 0.4 0 0.1 0 0.3 0 0.5 0 0 0 0.1 0.1 0.1 0.2 0.1 0.1 0.1 0.2 0.1 0.3 0 0.1 0 0.2 0 0.3 0 0.1 0 0.1-0.1 0.2 0 0 0 0.1 0 0.1 0 0 0 0 0 0.1l-0.1 0.2c0 0-0.1 0.1-0.1 0.1 0 0-0.1 0-0.1 0C96.4 84.7 96.3 84.7 96 84.7zM93.3 77.8c0 0-0.1 0-0.1 0.1 -0.1 0.2-0.2 0.3-0.3 0.4 -0.1 0.1-0.2 0.3-0.4 0.4 -0.1 0.1-0.2 0.3-0.3 0.5 -0.1 0.2-0.2 0.4-0.2 0.6 0 0 0 0.1 0 0.1 0 0 0.1 0 0.1 0 0 0 0 0 0 0 0.3-0.1 0.7-0.2 1.1-0.3l1-0.5c0.1 0 0.1-0.1 0.1-0.2 -0.1-0.3-0.2-0.6-0.4-0.8C93.7 78 93.5 77.9 93.3 77.8 93.3 77.8 93.3 77.8 93.3 77.8zM98.3 84.3c0-0.1-0.1-0.1-0.2-0.2C98 84 98 84 97.9 83.9c-0.1-0.1-0.1-0.2-0.1-0.2l0-0.2c0-0.1 0-0.1 0-0.1 0 0-0.1-0.1-0.1-0.2l-0.1-0.1 0 0c0 0 0-0.1 0-0.1l0-0.2c0.2-0.5 0.3-0.9 0.5-1.4 0.2-0.5 1-2.2 1-2.4 0 0 0-0.1 0-0.1l0-0.1c0.1-0.2 0.2-0.3 0.2-0.5l0.2-0.4c0.1-0.2 0.1-0.3 0.2-0.5 0.1-0.2 0.2-0.3 0.3-0.5l0.3-0.1 0.3 0c0.4-0.2 0.6-0.4 0.8-0.6 0.2-0.2 0.4-0.5 0.6-0.9l0.1-0.1 0.1 0c0.1 0 0.1 0.1 0.2 0.1l0.3 0.1c0.2 0 0.3 0.1 0.5 0.1 0.1 0 0.2 0.1 0.3 0.2 0 0.1 0.1 0.2 0.1 0.3 0 0.1 0 0.2 0.1 0.2 0 0.2 0.1 0.3 0.1 0.5 0 0.2 0.1 0.3 0.1 0.5 0.1 0.2 0.1 0.3 0.1 0.5 0 0.2 0.1 0.3 0.1 0.5l0.2 0.7c0.1 0.2 0.1 0.4 0.2 0.6 0 0.1 0.1 0.1 0.1 0.1 0 0 0 0 0 0 0 0 0.1 0 0.1 0 0 0 0.1 0 0.1 0 0 0 0.1 0 0.1 0l0.2 0 0 0c0 0.1 0.1 0.1 0.2 0.2 0.2 0 0.2 0 0.3 0.1 0.1 0 0.1 0.1 0.1 0.1 0.1 0 0.1 0.1 0.2 0.1l0.1 0 0 0.1c-0.1 0.2-0.2 0.3-0.4 0.5 -0.2 0.2-0.3 0.3-0.6 0.4 -0.1 0-0.1 0.1-0.1 0.2 0 0.1 0 0.1 0 0.2 0 0.1 0 0.1 0.1 0.2 0 0.1 0.1 0.3 0.1 0.5 0 0.2 0 0.3 0 0.5 -0.1 0.2-0.1 0.3-0.2 0.5 -0.1 0.2-0.2 0.3-0.3 0.4 -0.1 0.1-0.3 0.2-0.5 0.3 -0.2 0.1-0.3 0.1-0.5 0.2 -0.1 0-0.2-0.1-0.2-0.1 0 0-0.1-0.1-0.2-0.1 0 0-0.2-0.1-0.2-0.1l-0.1 0 0-0.1c0-0.1 0-0.2 0-0.3 0-0.1-0.1-0.1-0.2-0.2l-0.1-0.1c0 0-0.2-0.2-0.2-0.2l0.2 0c0.3-0.1 0.5-0.2 0.6-0.3 0.1-0.1 0.1-0.4 0.1-0.6 0-0.1-0.1-0.1-0.1-0.1 -0.1 0-0.2 0-0.3 0 -0.1 0-0.2 0-0.3 0 -0.1 0-0.3 0.1-0.4 0.1 -0.2 0.1-0.3 0.1-0.5 0.1 -0.2 0-0.4 0.1-0.6 0.1l-0.1 0c-0.2 0-0.2 0-0.3 0l0 0c0-0.1-0.1-0.1-0.1-0.2 -0.1-0.1-0.1-0.1-0.2-0.2 0 0 0-0.1 0-0.2 -0.1-0.2-0.1-0.2-0.1-0.3 0-0.1-0.1-0.1-0.1-0.1 0 0 0 0 0 0 -0.1 0-0.1 0-0.1 0.1 -0.1 0.1-0.1 0.3-0.1 0.4l0 0.1 -0.1 0c-0.1 0-0.1 0.1-0.1 0.2 0 0.1 0 0.1 0 0.1l-0.1 0.2c0 0-0.1 0.1-0.1 0.1 0 0.1 0 0.2-0.1 0.2l-0.1 0.2c0 0.1-0.1 0.3-0.1 0.4 0 0.1 0 0.3 0 0.4l0 0.1c0 0-0.1 0-0.1 0.1 -0.1 0-0.1 0.1-0.2 0.1 0 0-0.2 0.1-0.2 0.2l0 0.1 -0.3 0.1c0 0-0.1 0-0.1 0L98.3 84.3zM102.1 78.2c-0.1 0-0.1 0-0.1 0.1l-0.1 0.1c-0.2 0.2-0.4 0.4-0.5 0.7 -0.2 0.3-0.3 0.5-0.4 0.7l-0.2 0.3c-0.1 0.1-0.1 0.2-0.2 0.3 0 0 0 0.1 0 0.2 0 0 0.1 0.1 0.1 0.1 0 0 0 0 0 0 0.1 0 0.1 0 0.1 0 0.1 0 0.1 0 0.2 0 0.3 0 0.5-0.1 0.8-0.1 0.2 0 0.5-0.1 0.8-0.2 0 0 0.1 0 0.1-0.1 0 0 0-0.1 0-0.1 -0.1-0.3-0.2-0.6-0.3-0.9 -0.1-0.3-0.2-0.6-0.3-0.9C102.2 78.2 102.2 78.2 102.1 78.2 102.1 78.2 102.1 78.2 102.1 78.2zM114.3 83.7c-0.2 0-0.3-0.1-0.4-0.2 -0.1-0.1-0.2-0.3-0.3-0.4 -0.1-0.2-0.1-0.4-0.1-0.6 0-0.2-0.1-0.4-0.1-0.7 0 0 0-0.1 0.1-0.2 0.1-0.1 0.1-0.2 0.1-0.4l0.2-0.7c0.1-0.3 0.1-0.5 0.1-0.8 0 0 0 0 0 0 0 0 0 0 0.1 0 0.1 0 0.1-0.1 0.1-0.1 0-0.5 0-1-0.1-1.4 -0.1-0.5-0.2-0.9-0.3-1.4 0-0.1 0-0.1 0-0.1 0 0 0-0.1 0-0.1l0 0c0 0 0.1 0 0.1 0 0 0 0.1-0.1 0.1-0.1 0-0.2 0-0.3-0.1-0.5 -0.1-0.1-0.1-0.3-0.2-0.5 0.1-0.1 0.1-0.2 0.1-0.4 0-0.1 0-0.1 0-0.2 0.5 0.1 0.9 0.3 1.4 0.5 0.5 0.2 1 0.4 1.5 0.5 0.3 0.2 0.7 0.5 1.1 0.7 0.4 0.2 0.7 0.5 1 0.8 0.3 0.3 0.6 0.6 0.8 0.9 0.2 0.3 0.3 0.8 0.4 1.3l0 0.1c0 0.1 0 0.2 0 0.3 -0.2 0.6-0.6 1-1 1.4 -0.4 0.4-0.9 0.7-1.4 1 -0.5 0.3-1.1 0.6-1.6 0.8C115.3 83.2 114.8 83.4 114.3 83.7zM115.2 76.8c-0.1 0-0.2 0-0.2 0.1 0 0-0.1 0.1 0 0.2 0.1 0.4 0.2 0.7 0.3 1 0.1 0.3 0.1 0.6 0.1 0.9 0 0.3 0 0.6 0 1 0 0.3-0.1 0.7-0.1 1.1 0 0 0 0.1 0 0.1 0 0 0.1 0 0.1 0 0 0 0 0 0 0 0.1 0 0.2 0 0.3-0.1 0.1 0 0.2-0.1 0.2-0.1 0.1 0 0.2-0.1 0.2-0.1 0.1 0 0.2-0.1 0.3-0.1 0.1 0 0.1 0 0.1-0.1 0 0 0-0.1 0.1-0.1 0.1 0 0.1-0.1 0.2-0.2 0.2-0.1 0.4-0.1 0.5-0.2 0.2-0.1 0.4-0.2 0.6-0.3 0.2-0.1 0.3-0.3 0.5-0.4 0.1-0.2 0.3-0.4 0.3-0.6 0 0 0-0.1 0-0.1 -0.1-0.1-0.2-0.2-0.3-0.3 -0.1-0.1-0.2-0.2-0.3-0.3 -0.1-0.1-0.2-0.2-0.3-0.2 -0.1-0.1-0.1-0.2-0.2-0.3 0 0-0.1-0.1-0.1-0.1 -0.1 0-0.2 0-0.3-0.1l-0.3-0.1c-0.1-0.1-0.2-0.1-0.3-0.1 -0.1-0.1-0.3-0.1-0.4-0.1 -0.2-0.1-0.4-0.2-0.6-0.2C115.5 76.9 115.4 76.9 115.2 76.8 115.3 76.8 115.2 76.8 115.2 76.8 115.2 76.8 115.2 76.8 115.2 76.8zM123.2 83.3c0.2 0 0.3-0.1 0.4-0.1 0.1-0.1 0.2-0.2 0.3-0.3 0.1-0.1 0.1-0.3 0-0.6 -0.1-0.5-0.2-1-0.2-1.4 0-0.5 0-0.9 0.1-1.4 0.1-0.5 0.2-0.9 0.3-1.4 0.1-0.4 0.3-0.9 0.4-1.3 0 0-0.1-0.1-0.1-0.2 0-0.1-0.1-0.2-0.1-0.3 0-0.1 0-0.2 0-0.4l0-0.2c-0.1-0.1-0.2-0.1-0.2-0.3 -0.1-0.1-0.1-0.2-0.1-0.4l-0.1-0.3c0-0.1 0-0.1-0.1-0.2 -0.1 0-0.2 0-0.2 0.1 -0.1 0-0.2 0.1-0.2 0.2 -0.1 0.1-0.1 0.1-0.2 0.2 -0.1 0.1-0.1 0.1-0.2 0.2 0 0.2 0 0.3-0.1 0.5 -0.1 0.2-0.1 0.3-0.2 0.3 0 0.1 0 0.1 0 0.2 0 0.1 0 0.2 0 0.3 0 0.1-0.1 0.2-0.2 0.2 0 0 0 0.1 0 0.1 0 0.1 0.1 0.2 0 0.3 -0.1 0.4-0.2 0.8-0.3 1.2 -0.1 0.4-0.2 0.7-0.2 1.1 0 0.1 0 0.3 0 0.4l0 0.5c0 0.2 0 0.3 0 0.5 0 0.2 0 0.3-0.1 0.4l0.2 0.6c0.1 0.2 0.1 0.4 0.2 0.6 0.1 0.2 0.2 0.4 0.2 0.6 0.1 0.2 0.1 0.3 0.2 0.4 0.1 0 0.1 0 0.2 0C123 83.3 123.1 83.3 123.2 83.3zM135.6 82.9l0.1 0c0.3 0 0.5-0.1 0.6-0.2 0.1-0.1 0.1-0.3 0.1-0.5l-0.1-0.1c-0.1 0-0.2-0.1-0.2-0.1 0 0-0.1 0-0.2-0.1 0 0-0.1-0.1-0.1-0.1l-0.1-0.2c0-0.1 0-0.2 0-0.4l0-0.2c0-0.1 0-0.2 0.1-0.2 0 0 0-0.1 0-0.1 0-0.1 0-0.1 0.1-0.2 0-0.1 0.1-0.2 0.1-0.3 0 0 0-0.1 0.1-0.1 0-0.1 0.1-0.1 0.1-0.1l0-0.2c0-0.1 0.1-0.3 0.1-0.4 0.1-0.2 0.1-0.3 0.2-0.5 0-0.2 0.1-0.3 0.1-0.5 0.1-0.1 0.1-0.3 0.2-0.4 0.1-0.2 0.1-0.4 0.2-0.6 0.1-0.2 0.1-0.3 0.2-0.5 0.1-0.2 0.1-0.3 0.2-0.5 0.1-0.2 0.1-0.4 0.2-0.6 0-0.1 0.1-0.1 0.1-0.1 0.1 0 0.3 0 0.5-0.1 0.2 0 0.4-0.1 0.6-0.1 0.3-0.1 0.5-0.1 0.8-0.1 0.3 0 0.6-0.1 0.9-0.1l0.3 0c0 0 0.1 0 0.1 0l0.1-0.1c0.1 0 0.1 0 0.2-0.1 0.1 0 0.1 0 0.2 0l0.1 0 0.1-0.2c0 0 0 0 0.1-0.1 0-0.2 0-0.4-0.1-0.5 -0.1-0.1-0.2-0.2-0.3-0.3L141 74c-0.1-0.1-0.1-0.1-0.1-0.1l-0.1-0.1c-0.1 0-0.2 0-0.3 0l-0.2 0 -0.2 0c-0.3 0-0.6 0-0.9 0.1 -0.3 0.1-0.7 0.1-1 0.2 -0.2 0-0.4 0.1-0.7 0.1 -0.2 0-0.7 0.1-0.7 0.1 0 0-0.1 0-0.1 0 0 0-0.1-0.1-0.2-0.1 0 0-0.1 0-0.2 0 0 0 0 0 0 0 0 0 0 0 0 0l-0.1 0 -0.1 0.2c0 0-0.1 0.1-0.1 0.1l-1.2 0.2 -1 0.1c-0.3 0-0.6 0.1-1 0.1l-0.4 0 -0.1 0 0 0.1c0 0 0 0.1-0.1 0.1 0 0 0 0 0 0.1 0 0.1 0 0.3 0.1 0.4 0 0.1 0.1 0.2 0.1 0.3 0 0.1 0 0.1 0.1 0.2 0 0.1 0 0.1 0 0.1l0.1 0.1c0.1 0 0.1 0.1 0.3 0.3 0.1 0 0.1 0.1 0.2 0.1 0 0 0.1 0 0.2 0 0 0 0.2 0 0.2 0l0.1 0 0.3 0c0.1 0 0.2-0.1 0.3-0.1l0.1 0 0.1 0c0.1 0 0.2 0 0.3-0.1 0 0 0.1 0 0.1 0 0 0 0.1 0 0.1 0 0 0 0.1 0 0.1 0 0 0 0.2 0 0.3-0.1 0.1 0 0.1 0 0.2 0 0 0 0 0 0 0 0 0 0.1 0 0.1 0.1 0 0 0 0.1 0 0.2l-0.1 0.3 -0.3 0.7 -0.1 0.1c-0.1 0.2-0.1 0.4-0.2 0.6l-0.2 0.6c-0.1 0.4-0.2 0.7-0.3 1.1 -0.1 0.4-0.1 0.8-0.1 1.3 0 0.1 0.1 0.1 0.1 0.2 0 0.1 0.1 0.2 0.1 0.3 0 0.1 0 0.2 0.1 0.3 0 0.1 0.1 0.2 0.2 0.3l0 0.1 0.1 0c0.1 0 0.2 0.1 0.3 0.1 0 0 0.1 0.1 0.1 0.1l0.2 0.1C135.5 82.8 135.5 82.9 135.6 82.9 135.6 82.9 135.6 82.9 135.6 82.9zM142.5 82.5c0.3 0 0.6 0 0.9-0.1 0.3-0.1 0.6-0.1 0.8-0.2 0.1 0 0.2 0 0.2 0l0.1 0c0.4-0.1 0.7-0.2 1-0.2 0.3-0.1 0.5-0.1 0.8-0.2 0.2-0.1 0.4-0.2 0.6-0.4 0.1-0.1 0.3-0.3 0.4-0.6 0 0 0 0 0 0 0-0.1-0.1-0.1-0.1-0.2l0-0.2c-0.1 0-0.2 0-0.3-0.1 -0.1-0.1-0.1-0.1-0.2-0.2l-0.2-0.2c0 0-0.1-0.1 0-0.1 -0.2 0.1-0.5 0.2-0.8 0.2 -0.2 0-0.5 0.1-0.7 0.2 -0.3 0-0.5 0-0.7 0.1l-0.6 0.1c-0.2 0-0.4 0.1-0.6 0.1 -0.1 0-0.2 0-0.3 0 -0.2 0-0.4 0-0.6 0 0 0-0.1 0-0.1-0.1 0 0 0-0.1 0-0.1 0.1-0.3 0.2-0.5 0.3-0.8 0.1-0.2 0.3-0.5 0.4-0.7 0 0 0.1-0.1 0.1-0.1 0 0 0 0 0 0 0.1 0 0.2 0 0.3 0l0.2 0c0.1 0 0.2 0 0.3 0 0.1 0 0.2 0 0.3 0l0.2 0c0.1 0 0.1 0 0.2 0 0 0 0 0 0.1 0 0 0 0.1 0 0.1 0 0 0 0.1 0 0.1 0 0.2 0 0.4 0 0.6-0.1 0.2-0.1 0.3-0.1 0.5-0.2 0.2-0.1 0.3-0.2 0.5-0.3 0.2-0.1 0.3-0.2 0.4-0.3 0-0.1 0-0.1 0-0.2 0-0.1 0-0.1 0-0.1 -0.1 0-0.2 0-0.2-0.1 -0.1 0-0.2-0.1-0.3-0.2 -0.1-0.1-0.1-0.1-0.2-0.2 -0.1-0.1-0.1-0.1-0.2-0.2 0 0 0 0 0-0.1 -0.3 0-0.7 0.1-1 0.1 -0.3 0-0.6 0.1-0.9 0.1l-0.2 0c-0.1 0-0.1 0-0.1-0.1 0-0.1-0.1-0.2-0.1-0.3 0-0.1 0-0.1 0-0.2 0 0 0-0.1 0-0.1 0 0 0-0.1 0.1-0.1 0.1 0 0.2-0.1 0.3-0.1 0.1 0 0.1-0.1 0.2-0.1 0 0 0.2 0 0.2 0 0.1 0 0.2 0 0.3 0 0.1 0 0.2-0.1 0.2-0.1 0 0 0.1 0 0.1 0 0.3-0.2 0.6-0.3 0.9-0.4l0.9-0.2c0.3-0.1 0.6-0.2 0.8-0.3 0.2-0.1 0.4-0.3 0.6-0.6 0-0.1 0-0.1 0-0.1 0 0 0-0.1 0-0.2 0 0 0 0 0 0 -0.2-0.1-0.3-0.2-0.5-0.2 -0.1-0.1-0.2-0.2-0.3-0.3 0 0 0 0 0 0 0 0.1-0.1 0.1-0.1 0.1 -0.1 0-0.2 0-0.3-0.1 -0.4 0.1-0.7 0.2-1 0.2 -0.3 0.1-0.6 0.1-0.9 0.2 -0.3 0.1-0.6 0.1-0.9 0.2 -0.3 0.1-0.6 0.2-1 0.3 -0.2 0.1-0.4 0.1-0.6 0.2 -0.2 0-0.4 0.1-0.5 0.2 -0.2 0.1-0.3 0.1-0.4 0.2 -0.1 0.1-0.2 0.2-0.3 0.3 0 0.1 0.1 0.3 0.1 0.4 0 0.2 0.1 0.3 0.1 0.5 0 0.1 0.1 0.3 0.1 0.4 0.1 0.1 0.2 0.2 0.3 0.4 0 0 0.1 0.1 0 0.2 -0.1 0.2-0.1 0.4-0.2 0.6l-0.2 0.4c-0.1 0.1-0.1 0.3-0.2 0.5 -0.1 0.2-0.1 0.3-0.2 0.5 0 0 0 0 0 0 0 0 0 0-0.1 0 0 0.1 0 0.1-0.1 0.1 0 0.1 0 0.3-0.1 0.4 -0.1 0.1-0.1 0.2-0.1 0.3 0 0.1 0 0.3 0 0.4 0 0.2 0 0.3 0.1 0.5l0.1 0.5c0 0.1 0.1 0.2 0.1 0.4 0.1 0.1 0.2 0.1 0.2 0.3 0 0.1 0.1 0.1 0.1 0.2 0.2 0.2 0.4 0.3 0.7 0.3C141.9 82.5 142.2 82.5 142.5 82.5L142.5 82.5z" fill="#5D6162"/>
    <path d="M99.5 27.1c0.8 1.6 1.9 2.7 3.3 3.5 1.4 0.7 2.9 1.1 4.7 1.1 1.5 0 2.9-0.3 3.9-1 1.1-0.6 2-1.5 2.7-2.5 0.7-1 1.2-2 1.5-3l-0.7-0.2c-0.8 1.3-1.7 2.1-2.6 2.4 -0.9 0.3-1.7 0.5-2.4 0.5 -0.8 0-1.6-0.2-2.3-0.7 -0.7-0.5-1.4-1.2-1.9-2.3 -0.5-1.1-0.7-2.5-0.7-4.4 0-0.3 0-0.7 0-1 0-0.2 0-0.5 0.1-0.7h10.7c0-3.2-0.7-5.4-2-6.8 -1.3-1.4-3.2-2.1-5.5-2.1 -1.9 0-3.6 0.4-5.1 1.2 -1.5 0.8-2.7 2-3.6 3.6 -0.9 1.6-1.3 3.7-1.3 6.2C98.3 23.5 98.7 25.5 99.5 27.1zM108 10.8c0.6 0 1.1 0.3 1.4 1 0.4 0.7 0.6 1.5 0.8 2.6 0.2 1.1 0.2 2.3 0.2 3.6h-5.4c0.1-2.6 0.5-4.4 1-5.5C106.5 11.4 107.2 10.8 108 10.8zM49.4 47.3h-1.7c-0.3 3.9-0.9 7.1-1.7 9.5 -0.8 2.4-2.3 4.4-4.5 5.9 -1.1 0.9-2.4 1.7-3.9 2.2 -1.4 0.5-2.9 0.7-4.3 0.7 -2.7 0-5.1-0.7-7-2.2 -1.9-1.5-3.4-3.4-4.5-5.9 -1.1-2.4-1.9-5.2-2.4-8.2 -0.5-3-0.7-6.1-0.7-9.2 0-3 0.2-6.1 0.7-9.1 0.5-3 1.3-5.8 2.4-8.2 1.1-2.5 2.6-4.5 4.5-6 1.9-1.5 4.2-2.3 6.9-2.3 1.5 0 3 0.3 4.4 0.8 1.4 0.5 2.7 1.3 3.9 2.2 1.5 1 2.6 2.2 3.4 3.6 0.1 0.2 0.2 0.4 0.3 0.6v4.9c0 1.1-0.1 1.9-0.3 2.4 -0.2 0.5-0.6 0.9-1.3 1.1 -0.6 0.2-1.6 0.3-2.7 0.3v0.8c0.8 0 2-0.1 3.3-0.1 1.1 0 7.8 0 9 0 1.5 0 2.6 0.1 3.5 0.1v-0.8c-1.2 0-2.1-0.1-2.7-0.3 -0.6-0.2-1-0.5-1.3-1.1 -0.2-0.5-0.3-1.3-0.3-2.4V3.9h0.5c1.1 0 2.1 0.3 3 0.9 0.9 0.6 1.8 1.5 2.5 2.9 0.7 1.2 1.2 2.8 1.7 4.8 -0.1 0.1-0.2 0.2-0.3 0.3 -0.4 0.5-0.6 1.2-0.6 2 0 0.9 0.3 1.7 0.8 2.3 0.5 0.6 1.3 1 2.3 1 0.9 0 1.7-0.3 2.4-0.9 0.7-0.6 1-1.3 1-2.3 0-0.7-0.2-1.4-0.6-1.9 -0.4-0.6-1-1-1.9-1.3 0.3-0.3 0.7-0.5 1.2-0.6 0.5-0.1 0.9-0.2 1.4-0.2 0.8 0 1.4 0.2 1.8 0.5 0.4 0.3 0.7 0.8 0.9 1.3 0.2 0.5 0.3 1.1 0.3 1.7v3.3c0 0.6-0.3 1.1-0.8 1.5 -0.5 0.4-1.2 0.7-2 1 -0.8 0.3-1.7 0.6-2.6 0.9 -0.9 0.3-1.8 0.7-2.6 1.1 -0.8 0.5-1.5 1-2 1.8 -0.5 0.7-0.8 1.7-0.8 2.8 0 1.3 0.4 2.5 1.2 3.4 0.8 0.9 2.1 1.4 3.9 1.4 1.4 0 2.5-0.3 3.4-0.8 0.9-0.6 1.7-1.3 2.3-2.3 0 0.8 0.3 1.6 0.9 2.2 0.6 0.6 1.7 1 3.3 1 0.9 0 1.8-0.1 2.6-0.4 0.4-0.1 0.7-0.3 1-0.4v0.5c0.6 0 1.4-0.1 2.5-0.1 1.1 0 2.2-0.1 3.3-0.1 1.1 0 2.1 0 3.1 0.1 1 0 1.8 0.1 2.3 0.1v-0.8c-0.9 0-1.4-0.2-1.8-0.6 -0.3-0.4-0.5-1.2-0.5-2.3v-6.8c0.3 0 0.6 0.1 0.9 0.2 0.3 0.1 0.5 0.4 0.8 0.9l3.7 7.2c0.2 0.4 0.3 0.8 0.1 1 -0.2 0.2-0.5 0.4-1.1 0.4v0.8c0.5 0 1.3-0.1 2.3-0.1 1 0 2-0.1 3-0.1 0.9 0 1.7 0 2.6 0.1 0.9 0 1.5 0.1 1.9 0.1v-0.8c-0.4-0.2-0.7-0.5-1-0.8 -0.3-0.4-0.6-0.8-0.8-1.2l-6.5-11.6 1.8-1.8c0.9-0.9 1.8-1.7 2.7-2.3 0.9-0.6 1.8-1 2.7-1.2v-0.8c-0.3 0-0.8 0-1.4 0.1 -0.6 0-1.2 0-1.9 0 -0.6 0-1.2 0-1.8 0 -0.6 0-1.4 0-2.3 0 -0.9 0-1.7-0.1-2.4-0.1v0.8c0.9 0.1 1.7 0.3 2.3 0.8 0.6 0.5 0.9 1 0.9 1.7 0 0.7-0.5 1.5-1.4 2.4l-3 2.9c-0.3 0.3-0.7 0.5-1 0.6 -0.3 0.1-0.7 0.1-1.1 0.2V0c-0.9 0.2-1.9 0.3-2.9 0.4 -1.1 0.1-2.2 0.1-3.4 0.1 -0.8 0-1.6 0-2.5-0.1v0.8c0.9 0 1.6 0.3 1.9 0.9 0.3 0.6 0.5 1.5 0.5 2.6v22.6c0 1.1-0.2 1.9-0.5 2.3 -0.3 0.3-0.7 0.5-1.3 0.6 0.2-0.1 0.3-0.2 0.5-0.3l-0.4-0.7c-0.2 0.2-0.4 0.3-0.6 0.4 -0.2 0.1-0.5 0.2-0.7 0.2 -0.3 0-0.5-0.1-0.6-0.4 -0.1-0.3-0.2-0.7-0.2-1.4V17.4c0-1.4-0.1-2.5-0.2-3.3 -0.2-0.9-0.5-1.6-1.1-2.2 -0.7-0.7-1.6-1.2-2.7-1.5 -1-0.3-2.2-0.4-3.4-0.4 -1.2 0-2.4 0.1-3.5 0.3 -1.1 0.2-2 0.5-2.8 1 -0.2 0.1-0.3 0.2-0.5 0.3 0-0.4 0-0.8 0-1.3 0-0.7 0-1.8 0.1-3.1 0-1.4 0.1-2.8 0.2-4.2C60.2 3 58.8 3 57.3 3c-1.5 0-3 0-4.5 0s-2.9 0-4.1 0c-1.2 0-2.6 0-4.1 0 -1.5 0-3 0-4.5 0 -1.5 0-2.9-0.1-4.1-0.1 0.1 1.5 0.2 2.9 0.2 4.2 0 1.4 0.1 2.4 0.1 3.1 0 0.6 0 1.1 0 1.6 0 0.4 0 0.8-0.1 1.1 -1.6-0.4-3.4-0.6-5.5-0.6 -5.3 0-10.1 1.2-14.2 3.5 -4.1 2.3-7.4 5.6-9.7 9.8 -2.3 4.2-3.5 9.1-3.5 14.7C3.3 46.1 4.5 51 6.8 55c2.3 4 5.5 7.1 9.6 9.3 4.1 2.1 8.9 3.2 14.4 3.2 3.2 0 5.9-0.5 8-1.5 2.1-1 4-2.1 5.9-3.4 1.1-0.7 1.9-0.8 2.4-0.2 0.5 0.6 0.8 1.9 1 4h1.7c-0.1-2-0.2-4.5-0.2-7.5C49.4 56.1 49.4 52.2 49.4 47.3zM68.9 27.4c-0.3 0.4-0.6 0.7-1 0.9 -0.3 0.2-0.7 0.3-1.1 0.3 -0.6 0-1.2-0.2-1.6-0.7 -0.4-0.5-0.7-1.2-0.7-2.3 0-1 0.2-1.8 0.5-2.4 0.3-0.6 0.7-1.1 1.2-1.5 0.5-0.4 1-0.8 1.5-1.2 0.5-0.4 0.9-0.8 1.2-1.3V27.4zM37.2 13.2c0.6-2.4 1.2-4.3 2-5.6 0.7-1.4 1.6-2.3 2.5-2.9 0.9-0.6 2-0.9 3.1-0.9h0.4v13.8c-0.2-0.1-0.4-0.2-0.6-0.4 -1.6-1.3-3.5-2.4-5.7-3.4C38.4 13.6 37.8 13.4 37.2 13.2L37.2 13.2zM104.1 37.7c-0.4-0.9-0.9-1.6-1.7-2.2 -0.8-0.6-1.9-0.9-3.2-0.9 -1.2 0-2.3 0.2-3.3 0.6 -1 0.4-1.9 1-2.7 1.8 -0.8 0.8-1.4 1.7-1.9 2.7v-4.9c-1.4 0.3-2.8 0.5-4.5 0.6 -1.6 0.1-3.3 0.2-5.1 0.2 -1.2 0-2.4-0.1-3.7-0.2v1.3c1.4 0 2.3 0.4 2.8 1.3 0.5 0.9 0.8 2.2 0.8 4v18.9c0 1.7-0.3 2.8-0.8 3.4 -0.4 0.5-1.2 0.8-2.1 0.9 0.2-0.2 0.5-0.3 0.7-0.5l-0.7-1c-0.3 0.2-0.6 0.5-0.9 0.7 -0.3 0.2-0.7 0.3-1.1 0.3 -0.4 0-0.7-0.2-0.9-0.6 -0.2-0.4-0.3-1.1-0.3-2.1V45.8c0-2-0.1-3.7-0.4-5 -0.2-1.3-0.8-2.4-1.7-3.4 -1.1-1.1-2.5-1.9-4-2.2 -1.6-0.4-3.3-0.6-5.2-0.6 -1.8 0-3.6 0.2-5.2 0.5 -1.6 0.3-3 0.8-4.2 1.5 -1.2 0.7-2 1.4-2.6 2.2 -0.6 0.8-0.9 1.8-0.9 3 0 1.4 0.4 2.5 1.2 3.5 0.8 1 2 1.4 3.5 1.4 1.4 0 2.6-0.4 3.6-1.3 1-0.9 1.5-2 1.5-3.5 0-1.1-0.3-2.1-0.9-2.9 -0.6-0.9-1.6-1.5-2.8-2 0.5-0.4 1.1-0.8 1.8-1 0.7-0.2 1.4-0.3 2.1-0.3 1.2 0 2.1 0.2 2.7 0.7 0.7 0.5 1.1 1.1 1.4 1.9 0.3 0.8 0.4 1.6 0.4 2.5v5c0 0.9-0.4 1.7-1.1 2.2 -0.8 0.6-1.8 1.1-3 1.6 -1.2 0.5-2.5 0.9-3.9 1.4 -1.4 0.5-2.7 1-3.9 1.7 -1.2 0.7-2.2 1.6-3 2.7 -0.8 1.1-1.2 2.5-1.2 4.2 0 2 0.6 3.7 1.8 5.1 1.2 1.4 3.2 2.1 5.8 2.1 2 0 3.8-0.4 5.2-1.3 1.4-0.8 2.6-2 3.5-3.5 0 1.2 0.5 2.3 1.3 3.3 0.8 1 2.5 1.4 5 1.4 1.4 0 2.7-0.2 3.9-0.6 0.6-0.2 1.2-0.5 1.8-0.8v0.9c0.8 0 2.1-0.1 3.9-0.1 1.7-0.1 3.5-0.1 5.2-0.1 1.9 0 3.8 0 5.6 0.1 1.8 0.1 3.2 0.1 4.1 0.1v-1.3c-1.9 0-3.2-0.3-4.1-1 -0.9-0.7-1.3-2-1.3-3.9V43.4c0-1 0.2-1.9 0.6-2.8 0.4-0.9 0.9-1.7 1.6-2.4 0.7-0.7 1.5-1.1 2.3-1.3 0.6-0.2 1.1-0.3 1.7-0.2 -0.8 0.6-1.5 1.2-2 2 -0.5 0.8-0.8 1.8-0.8 3.1 0 1.2 0.4 2.2 1.3 3 0.8 0.7 2.1 1.1 3.7 1.1 1.5 0 2.7-0.5 3.7-1.5 0.9-1 1.4-2.3 1.4-4C104.6 39.5 104.4 38.6 104.1 37.7zM65.7 60.9c-0.5 0.6-1 1.1-1.5 1.3 -0.5 0.3-1 0.4-1.6 0.4 -1 0-1.8-0.3-2.4-1 -0.7-0.7-1-1.9-1-3.5 0-1.5 0.2-2.7 0.7-3.7 0.5-0.9 1.1-1.7 1.9-2.3 0.7-0.6 1.5-1.2 2.2-1.7 0.7-0.5 1.3-1.2 1.7-1.9V60.9zM124.3 60.8c-1.4 0.5-2.6 0.7-3.6 0.7 -1.2 0-2.4-0.3-3.5-1 -1.1-0.7-2-1.8-2.8-3.5 -0.7-1.6-1.1-3.8-1.1-6.6 0-0.5 0-1 0-1.5 0-0.4 0-0.7 0.1-1h16.1c0-4.8-1-8.2-3-10.3 -2-2.1-4.8-3.1-8.3-3.1 -2.8 0-5.4 0.6-7.7 1.8 -2.3 1.2-4.1 3-5.4 5.4 -1.3 2.4-2 5.6-2 9.4 0 3.8 0.6 6.9 1.8 9.3 1.2 2.4 2.9 4.1 4.9 5.2s4.4 1.6 7.1 1.6c2.3 0 4.3-0.5 5.9-1.5 1.6-1 3-2.2 4-3.7 1.1-1.5 1.8-3 2.2-4.6l-1-0.4C127 59.1 125.7 60.3 124.3 60.8zM117.9 35.9c0.9 0 1.6 0.5 2.1 1.5 0.5 1 0.9 2.3 1.2 4 0.2 1.7 0.3 3.5 0.2 5.4h-8.1c0.2-3.9 0.7-6.7 1.5-8.3C115.6 36.8 116.7 35.9 117.9 35.9z" fill="#9E338D"/>
</svg>